<svg width="21" height="22" viewBox="0 0 21 22" fill="none" xmlns="http://www.w3.org/2000/svg">
<g clip-path="url(#clip0_550_1466)">
<path d="M20.7495 11.2055C20.7495 10.3042 20.6797 9.64644 20.5286 8.96436H10.7041V13.0325H16.4708C16.3546 14.0435 15.7268 15.566 14.3316 16.5891L14.312 16.7253L17.4183 19.2463L17.6335 19.2688C19.61 17.3565 20.7495 14.5429 20.7495 11.2055Z" fill="#4285F4"/>
<path d="M10.7038 21.924C13.529 21.924 15.9008 20.9495 17.6332 19.2687L14.3312 16.589C13.4476 17.2346 12.2617 17.6852 10.7038 17.6852C7.93665 17.6852 5.5881 15.773 4.7509 13.1299L4.62819 13.1408L1.3982 15.7596L1.35596 15.8826C3.07667 19.4635 6.61117 21.924 10.7038 21.924Z" fill="#34A853"/>
<path d="M4.75131 13.1301C4.53041 12.448 4.40256 11.7171 4.40256 10.962C4.40256 10.2068 4.53041 9.47597 4.73968 8.79389L4.73383 8.64862L1.46336 5.98779L1.35636 6.04111C0.64717 7.52712 0.240234 9.19585 0.240234 10.962C0.240234 12.7281 0.64717 14.3967 1.35636 15.8828L4.75131 13.1301Z" fill="#FBBC05"/>
<path d="M10.7038 4.23869C12.6686 4.23869 13.994 5.12785 14.7498 5.87089L17.7029 2.85018C15.8892 1.08405 13.529 0 10.7038 0C6.61117 0 3.07667 2.46039 1.35596 6.04135L4.73928 8.79412C5.5881 6.15102 7.93665 4.23869 10.7038 4.23869Z" fill="#EB4335"/>
</g>
<defs>
<clipPath id="clip0_550_1466">
<rect width="21" height="22" fill="white"/>
</clipPath>
</defs>
</svg>
