<svg width="70" height="18" viewBox="0 0 70 18" fill="none" xmlns="http://www.w3.org/2000/svg">
<path d="M54.089 4.72705H50.3157C50.0937 4.72705 49.8718 4.94901 49.7608 5.17098L48.207 14.9373C48.207 15.1593 48.318 15.2703 48.54 15.2703H50.5376C50.7596 15.2703 50.8706 15.1593 50.8706 14.9373L51.3145 12.1628C51.3145 11.9408 51.5365 11.7189 51.8694 11.7189H53.0902C55.6428 11.7189 57.0855 10.4981 57.4185 8.0565C57.6405 7.05766 57.4185 6.16981 56.9746 5.6149C56.3087 5.06 55.3098 4.72705 54.089 4.72705ZM54.533 8.38944C54.311 9.72122 53.3122 9.72122 52.3133 9.72122H51.6475L52.0914 7.16864C52.0914 7.05766 52.2024 6.94668 52.4243 6.94668H52.6463C53.3122 6.94668 53.9781 6.94668 54.311 7.39061C54.533 7.50159 54.533 7.83453 54.533 8.38944Z" fill="#139AD6"/>
<path d="M26.8996 4.72705H23.1262C22.9043 4.72705 22.6823 4.94901 22.5713 5.17098L21.0176 14.9373C21.0176 15.1593 21.1286 15.2703 21.3505 15.2703H23.1262C23.3482 15.2703 23.5702 15.0483 23.6811 14.8264L24.1251 12.1628C24.1251 11.9408 24.347 11.7189 24.68 11.7189H25.9008C28.4533 11.7189 29.8961 10.4981 30.229 8.0565C30.451 7.05766 30.229 6.16981 29.7851 5.6149C29.1192 5.06 28.2314 4.72705 26.8996 4.72705ZM27.3435 8.38944C27.1216 9.72122 26.1227 9.72122 25.1239 9.72122H24.569L25.0129 7.16864C25.0129 7.05766 25.1239 6.94668 25.3459 6.94668H25.5678C26.2337 6.94668 26.8996 6.94668 27.2325 7.39061C27.3435 7.50159 27.4545 7.83453 27.3435 8.38944Z" fill="#263B80"/>
<path d="M38.3299 8.27812H36.5542C36.4433 8.27812 36.2213 8.3891 36.2213 8.50008L36.1103 9.05499L35.9993 8.83302C35.5554 8.27812 34.7785 8.05615 33.8907 8.05615C31.893 8.05615 30.1173 9.60989 29.7844 11.7185C29.5624 12.8284 29.8954 13.8272 30.4503 14.4931C31.0052 15.159 31.782 15.3809 32.7809 15.3809C34.4456 15.3809 35.3334 14.3821 35.3334 14.3821L35.2225 14.937C35.2225 15.159 35.3334 15.27 35.5554 15.27H37.2201C37.4421 15.27 37.6641 15.048 37.775 14.826L38.7739 8.61106C38.6629 8.50008 38.4409 8.27812 38.3299 8.27812ZM35.7774 11.8295C35.5554 12.8284 34.7785 13.6052 33.6687 13.6052C33.1138 13.6052 32.6699 13.3833 32.4479 13.1613C32.226 12.8284 32.115 12.3844 32.115 11.8295C32.226 10.8307 33.1138 10.0538 34.1126 10.0538C34.6676 10.0538 35.0005 10.2758 35.3334 10.4977C35.6664 10.8307 35.7774 11.3856 35.7774 11.8295Z" fill="#263B80"/>
<path d="M65.4081 8.2786H63.6324C63.5214 8.2786 63.2994 8.38958 63.2994 8.50057L63.1884 9.05547L63.0775 8.83351C62.6335 8.2786 61.8567 8.05664 60.9688 8.05664C58.9711 8.05664 57.1954 9.61038 56.8625 11.719C56.6405 12.8288 56.9735 13.8277 57.5284 14.4936C58.0833 15.1595 58.8602 15.3814 59.859 15.3814C61.5237 15.3814 62.4116 14.3826 62.4116 14.3826L62.3006 14.9375C62.3006 15.1595 62.4116 15.2704 62.6335 15.2704H64.2983C64.5202 15.2704 64.7422 15.0485 64.8532 14.8265L65.852 8.61155C65.741 8.50057 65.63 8.2786 65.4081 8.2786ZM62.8555 11.83C62.6335 12.8288 61.8567 13.6057 60.7468 13.6057C60.1919 13.6057 59.748 13.3838 59.526 13.1618C59.3041 12.8288 59.1931 12.3849 59.1931 11.83C59.3041 10.8312 60.1919 10.0543 61.1908 10.0543C61.7457 10.0543 62.0786 10.2763 62.4116 10.4982C62.8555 10.8312 62.9665 11.3861 62.8555 11.83Z" fill="#139AD6"/>
<path d="M47.985 8.27832H46.0983C45.8764 8.27832 45.7654 8.3893 45.6544 8.50028L43.2128 12.2737L42.103 8.72225C41.992 8.50028 41.881 8.3893 41.5481 8.3893H39.7724C39.5504 8.3893 39.4395 8.61126 39.4395 8.83323L41.4371 14.7152L39.5504 17.3788C39.4395 17.6008 39.5504 17.9337 39.7724 17.9337H41.5481C41.7701 17.9337 41.881 17.8227 41.992 17.7117L48.096 8.94421C48.429 8.61127 48.207 8.27832 47.985 8.27832Z" fill="#263B80"/>
<path d="M67.5166 5.05994L65.9629 15.0483C65.9629 15.2702 66.0739 15.3812 66.2958 15.3812H67.8496C68.0715 15.3812 68.2935 15.1593 68.4045 14.9373L69.9582 5.17092C69.9582 4.94895 69.8472 4.83797 69.6253 4.83797H67.8496C67.7386 4.72699 67.6276 4.83797 67.5166 5.05994Z" fill="#139AD6"/>
<path d="M12.8039 1.39769C12.027 0.509843 10.5843 0.065918 8.58659 0.065918H3.03752C2.70457 0.065918 2.37163 0.398861 2.26065 0.731805L0.0410156 15.2704C0.0410156 15.6033 0.262979 15.8253 0.484942 15.8253H3.92537L4.81322 10.3872V10.6092C4.9242 10.2762 5.25715 9.94327 5.59009 9.94327H7.25481C10.4733 9.94327 12.9149 8.61149 13.6917 4.9491C13.6917 4.83812 13.6917 4.72714 13.6917 4.61616C13.5808 4.61616 13.5808 4.61616 13.6917 4.61616C13.8027 3.1734 13.5808 2.28555 12.8039 1.39769Z" fill="#263B80"/>
<path d="M13.5801 4.61621C13.5801 4.72719 13.5801 4.83818 13.5801 4.94916C12.8033 8.72253 10.3617 9.94332 7.1432 9.94332H5.47848C5.14554 9.94332 4.81259 10.2763 4.70161 10.6092L3.5918 17.3791C3.5918 17.601 3.70278 17.823 4.03572 17.823H6.92124C7.25419 17.823 7.58713 17.601 7.58713 17.2681V17.1571L8.14204 13.7167V13.4947C8.14204 13.1618 8.47498 12.9398 8.80793 12.9398H9.25185C12.0264 12.9398 14.246 11.83 14.8009 8.50056C15.0229 7.16879 14.9119 5.94799 14.246 5.17112C14.135 4.94916 13.9131 4.72719 13.5801 4.61621Z" fill="#139AD6"/>
<path d="M12.8032 4.28314C12.6922 4.28314 12.5812 4.17216 12.4702 4.17216C12.3592 4.17216 12.2483 4.17216 12.1373 4.06118C11.6934 3.95019 11.2494 3.9502 10.6945 3.9502H6.36624C6.25526 3.9502 6.14428 3.95019 6.0333 4.06118C5.81133 4.17216 5.70035 4.39412 5.70035 4.61608L4.8125 10.3871V10.6091C4.92348 10.2761 5.25643 9.94319 5.58937 9.94319H7.25409C10.4726 9.94319 12.9141 8.61142 13.691 4.94903C13.691 4.83805 13.691 4.72706 13.802 4.61608C13.58 4.5051 13.4691 4.39412 13.2471 4.39412C12.9141 4.28314 12.9141 4.28314 12.8032 4.28314Z" fill="#232C65"/>
</svg>
