<svg width="50" height="50" viewBox="0 0 50 50" fill="none" xmlns="http://www.w3.org/2000/svg">
<rect width="50" height="50" rx="25" fill="#021C33"/>
<path d="M5.51498 40.6631C8.15327 43.9452 11.5778 46.5076 15.4709 48.1127C19.364 49.7178 23.5994 50.3135 27.7842 49.8445C31.969 49.3755 35.9675 47.8571 39.4088 45.4301C42.85 43.0031 45.6224 39.7461 47.4688 35.9615C49.3151 32.1769 50.1756 27.9872 49.9703 23.7813C49.765 19.5753 48.5006 15.4893 46.2945 11.9025C44.0884 8.31566 41.0119 5.34421 37.3507 3.26386C33.6895 1.18352 29.5621 0.0616878 25.3516 0.00247196L25 25L5.51498 40.6631Z" fill="#0072BD"/>
<rect x="4" y="4" width="42" height="42" rx="21" fill="#021C33"/>
</svg>
