<svg width="42" height="42" viewBox="0 0 42 42" fill="none" xmlns="http://www.w3.org/2000/svg">
<path d="M30.051 5.56738H3.30617C2.33658 5.56738 1.60938 6.37538 1.60938 7.26418V22.1314C1.60938 23.0202 2.33658 23.8282 3.30617 23.8282H30.051C30.9398 23.8282 31.7478 23.101 31.7478 22.1314V7.26418C31.667 6.37538 30.9398 5.56738 30.051 5.56738Z" fill="#24A5FC"/>
<path d="M1.60938 9.12256H31.667V12.9202H1.60938V9.12256Z" fill="#50506D"/>
<path d="M38.6975 36.4324H11.9527C11.0639 36.4324 10.2559 35.7052 10.2559 34.7356V19.7876C10.2559 18.8988 10.9831 18.0908 11.9527 18.0908H38.6975C39.5863 18.0908 40.3943 18.818 40.3943 19.7876V34.7356C40.3943 35.6244 39.6671 36.4324 38.6975 36.4324Z" fill="#B1CBFF"/>
<path d="M39.9099 30.4539C39.3443 29.9691 38.7787 29.5651 38.1323 29.2419C38.6171 27.7875 38.8595 26.0907 38.9403 24.3131H40.3947V23.3435H38.9403C38.8595 21.4851 38.6171 19.8691 38.1323 18.4147L38.6171 18.1723H36.3547C35.5467 18.4147 34.7387 18.5763 33.8499 18.6571V18.1723H32.8803V18.5763C32.0723 18.4955 31.1835 18.3339 30.4563 18.0915H28.1131L28.5979 18.3339C28.1131 19.7883 27.8707 21.4851 27.7899 23.2627H24.0731C24.1539 21.3235 24.8811 19.4651 26.0123 18.0107H24.8003C23.7499 19.6267 23.1035 21.6467 23.1035 23.7475C23.1035 29.4035 27.7091 34.0091 33.3651 34.0091C36.1123 34.0091 38.5363 32.9587 40.3947 31.2619V29.8883C40.2331 30.1307 40.0715 30.2923 39.9099 30.4539ZM27.5475 31.1003C27.9515 30.7771 28.4363 30.4539 28.9211 30.1307C29.3251 31.1811 29.8907 31.9891 30.4563 32.6355C29.4059 32.3931 28.4363 31.8275 27.5475 31.1003ZM28.5979 29.2419C27.9515 29.5651 27.3859 29.9691 26.8203 30.4539C25.2043 28.8379 24.2347 26.7371 24.0731 24.3131H27.7899C27.8707 26.1715 28.1131 27.8683 28.5979 29.2419ZM32.8803 23.3435H28.7595C28.8403 21.7275 29.0827 20.1115 29.4867 18.8187C30.5371 19.2227 31.6683 19.4651 32.8803 19.5459V23.3435ZM32.8803 28.1107C31.7491 28.1915 30.5371 28.4339 29.4867 28.8379C29.0827 27.5451 28.7595 25.9291 28.7595 24.3131H32.8803V28.1107ZM32.8803 33.1203C31.6683 32.8779 30.6179 31.5851 29.8099 29.8075C30.7795 29.4035 31.8299 29.1611 32.8803 29.1611V33.1203ZM33.8499 29.0803C34.9003 29.1611 35.9507 29.3227 36.9203 29.7267C36.1931 31.5851 35.0619 32.7971 33.8499 33.0395V29.0803ZM37.9707 23.3435H33.8499V19.5459C34.9811 19.4651 36.1931 19.2227 37.2435 18.8187C37.6475 20.1923 37.8899 21.7275 37.9707 23.3435ZM37.9707 24.3131C37.8899 25.9291 37.6475 27.5451 37.2435 28.8379C36.1931 28.4339 35.0619 28.1915 33.8499 28.1107V24.3131H37.9707ZM39.1827 31.1003C38.2939 31.8275 37.3243 32.3123 36.1931 32.7163C36.8395 32.0699 37.3243 31.1811 37.7283 30.2115C38.2939 30.4539 38.7787 30.7771 39.1827 31.1003Z" fill="#CDDEF9"/>
<path d="M13.8106 23.3433C14.6585 23.3433 15.3458 22.656 15.3458 21.8081C15.3458 20.9603 14.6585 20.2729 13.8106 20.2729C12.9627 20.2729 12.2754 20.9603 12.2754 21.8081C12.2754 22.656 12.9627 23.3433 13.8106 23.3433Z" fill="#FCB924"/>
<path d="M16.3145 23.3433C17.1624 23.3433 17.8497 22.656 17.8497 21.8081C17.8497 20.9603 17.1624 20.2729 16.3145 20.2729C15.4666 20.2729 14.7793 20.9603 14.7793 21.8081C14.7793 22.656 15.4666 23.3433 16.3145 23.3433Z" fill="#FF6193"/>
<path d="M13.3268 32.9583H13.0036V31.7463L12.5996 31.8271V31.5847L13.246 31.3423V32.9583H13.3268Z" fill="#50506D"/>
<path d="M14.9425 32.9585H13.8113V32.7161L14.2961 32.1505C14.3769 32.0697 14.4577 31.9889 14.4577 31.9081C14.4577 31.8273 14.5385 31.8273 14.5385 31.7465C14.5385 31.6657 14.5385 31.5849 14.4577 31.5849C14.4577 31.5041 14.3769 31.5041 14.2961 31.5041C14.2153 31.5041 14.1345 31.5041 14.1345 31.5849C14.1345 31.6657 14.0537 31.6657 14.0537 31.7465H13.7305C13.7305 31.6657 13.7305 31.5849 13.8113 31.5041C13.8921 31.4233 13.8921 31.3425 13.9729 31.3425C14.0537 31.2617 14.1345 31.2617 14.2961 31.2617C14.4577 31.2617 14.6193 31.2617 14.7001 31.3425C14.7809 31.4233 14.8617 31.5041 14.8617 31.6657C14.8617 31.7465 14.8617 31.8273 14.7809 31.9081C14.7001 31.9889 14.7001 32.0697 14.5385 32.2313L14.2153 32.6353H14.9425V32.9585Z" fill="#50506D"/>
<path d="M15.1855 32.1503L15.2663 31.3423H16.1551V31.5847H15.5087V31.9079C15.5895 31.9079 15.6703 31.8271 15.7511 31.8271C15.9127 31.8271 15.9935 31.9079 16.0743 31.9887C16.1551 32.0695 16.2359 32.2311 16.2359 32.3927C16.2359 32.4735 16.2359 32.5543 16.1551 32.6351C16.0743 32.7159 16.0743 32.7967 15.9935 32.7967C15.9127 32.7967 15.8319 32.8775 15.6703 32.8775C15.5895 32.8775 15.5087 32.8775 15.4279 32.7967C15.3471 32.7967 15.2663 32.7159 15.2663 32.6351C15.1855 32.5543 15.1855 32.4735 15.1855 32.3927H15.5087C15.5087 32.4735 15.5087 32.4735 15.5895 32.5543C15.5895 32.5543 15.6703 32.6351 15.7511 32.6351C15.8319 32.6351 15.9127 32.6351 15.9127 32.5543C15.9127 32.4735 15.9935 32.3927 15.9935 32.3119C15.9935 32.2311 15.9935 32.1503 15.9127 32.0695C15.8319 31.9887 15.8319 31.9887 15.7511 31.9887C15.6703 31.9887 15.5895 31.9887 15.5895 32.0695L15.1855 32.1503Z" fill="#50506D"/>
<path d="M17.3661 32.3119H17.5277V32.5543H17.3661V32.8775H17.0429V32.5543H16.3965V32.3927L17.0429 31.3423H17.3661V32.3119ZM16.7197 32.3119H17.0429V31.7463L16.7197 32.3119Z" fill="#50506D"/>
<path d="M20.276 32.9583H19.9528V31.7463L19.5488 31.8271V31.5847L20.1952 31.3423V32.9583H20.276Z" fill="#50506D"/>
<path d="M20.8418 32.1503L20.9226 31.3423H21.8114V31.5847H21.165V31.9079C21.2458 31.9079 21.3266 31.8271 21.4074 31.8271C21.569 31.8271 21.6498 31.9079 21.7306 31.9887C21.8114 32.0695 21.8922 32.2311 21.8922 32.3927C21.8922 32.4735 21.8922 32.5543 21.8114 32.6351C21.7306 32.7159 21.7306 32.7967 21.6498 32.7967C21.569 32.7967 21.4882 32.8775 21.3266 32.8775C21.2458 32.8775 21.165 32.8775 21.0842 32.7967C21.0034 32.7967 20.9226 32.7159 20.9226 32.6351C20.8418 32.5543 20.8418 32.4735 20.8418 32.3927H21.165C21.165 32.4735 21.165 32.4735 21.2458 32.5543C21.2458 32.5543 21.3266 32.6351 21.4074 32.6351C21.4882 32.6351 21.569 32.6351 21.569 32.5543C21.569 32.4735 21.6498 32.3927 21.6498 32.3119C21.6498 32.2311 21.6498 32.1503 21.569 32.0695C21.4882 31.9887 21.4882 31.9887 21.4074 31.9887C21.3266 31.9887 21.2458 31.9887 21.2458 32.0695L20.8418 32.1503Z" fill="#50506D"/>
<path d="M23.1847 32.9585H22.0535V32.7161L22.5383 32.1505C22.6191 32.0697 22.6999 31.9889 22.6999 31.9081C22.6999 31.8273 22.7807 31.8273 22.7807 31.7465C22.7807 31.6657 22.7807 31.5849 22.6999 31.5849C22.6191 31.5849 22.6191 31.5041 22.5383 31.5041C22.4575 31.5041 22.3767 31.5041 22.3767 31.5849C22.2959 31.6657 22.2959 31.6657 22.2959 31.7465H21.9727C21.9727 31.6657 21.9727 31.5849 22.0535 31.5041C22.1343 31.4233 22.1343 31.3425 22.2151 31.3425C22.2959 31.2617 22.3767 31.2617 22.5383 31.2617C22.6999 31.2617 22.8615 31.2617 22.9423 31.3425C23.0231 31.4233 23.1039 31.5041 23.1039 31.6657C23.1039 31.7465 23.1039 31.8273 23.0231 31.9081C22.9423 31.9889 22.9423 32.0697 22.7807 32.2313L22.4575 32.6353H23.1847V32.9585Z" fill="#50506D"/>
<path d="M23.4258 32.1503L23.5066 31.3423H24.3954V31.5847H23.749V31.9079C23.8298 31.9079 23.9106 31.8271 23.9914 31.8271C24.153 31.8271 24.2338 31.9079 24.3146 31.9887C24.3954 32.0695 24.4762 32.2311 24.4762 32.3927C24.4762 32.4735 24.4762 32.5543 24.3954 32.6351C24.3146 32.7159 24.3146 32.7967 24.2338 32.7967C24.153 32.8775 24.0722 32.8775 23.9106 32.8775C23.8298 32.8775 23.749 32.8775 23.6682 32.7967C23.5874 32.7967 23.5066 32.7159 23.5066 32.6351C23.4258 32.6351 23.4258 32.5543 23.4258 32.4735H23.749C23.749 32.5543 23.749 32.5543 23.8298 32.6351C23.9106 32.7159 23.9106 32.7159 23.9914 32.7159C24.0722 32.7159 24.153 32.7159 24.153 32.6351C24.153 32.5543 24.2338 32.4735 24.2338 32.3927C24.2338 32.3119 24.2338 32.2311 24.153 32.1503C24.0722 32.0695 24.0722 32.0695 23.9914 32.0695C23.9106 32.0695 23.8298 32.0695 23.8298 32.1503H23.4258Z" fill="#50506D"/>
<path d="M26.4961 32.1503L26.5769 31.3423H27.4657V31.5847H26.8193V31.9079C26.9001 31.9079 26.9809 31.8271 27.0617 31.8271C27.2233 31.8271 27.3041 31.9079 27.3849 31.9887C27.4657 32.0695 27.5465 32.2311 27.5465 32.3927C27.5465 32.4735 27.5465 32.5543 27.4657 32.6351C27.3849 32.7159 27.3849 32.7967 27.3041 32.7967C27.2233 32.8775 27.1425 32.8775 26.9809 32.8775C26.9001 32.8775 26.8193 32.8775 26.7385 32.7967C26.6577 32.7159 26.5769 32.7159 26.5769 32.6351C26.4961 32.5543 26.4961 32.4735 26.4961 32.3927H26.8193C26.8193 32.4735 26.8193 32.4735 26.9001 32.5543C26.9001 32.5543 26.9809 32.6351 27.0617 32.6351C27.1425 32.6351 27.2233 32.6351 27.2233 32.5543C27.2233 32.4735 27.3041 32.3927 27.3041 32.3119C27.3041 32.2311 27.3041 32.1503 27.2233 32.0695C27.1425 31.9887 27.1425 31.9887 27.0617 31.9887C26.9809 31.9887 26.9001 31.9887 26.9001 32.0695L26.4961 32.1503Z" fill="#50506D"/>
<path d="M28.6786 32.3119H28.8402V32.5543H28.6786V32.8775H28.3554V32.5543H27.709V32.3927L28.3554 31.3423H28.6786V32.3119ZM28.0322 32.3119H28.3554V31.7463L28.0322 32.3119Z" fill="#50506D"/>
<path d="M29.8092 32.9583H29.486V31.7463L29.082 31.8271V31.5847L29.7284 31.3423V32.9583H29.8092Z" fill="#50506D"/>
<path d="M30.6176 31.9889H30.7792C30.86 31.9889 30.9408 31.9889 30.9408 31.9081C30.9408 31.9081 31.0216 31.8273 31.0216 31.7465C31.0216 31.6657 31.0216 31.6657 30.9408 31.5849C30.86 31.5041 30.86 31.5041 30.7792 31.5041C30.6984 31.5041 30.6984 31.5041 30.6176 31.5849C30.5368 31.5849 30.5368 31.6657 30.5368 31.7465H30.2136C30.2136 31.6657 30.2136 31.5849 30.2944 31.5041C30.3752 31.4233 30.3752 31.4233 30.456 31.3425C30.5368 31.3425 30.6176 31.2617 30.6984 31.2617C30.86 31.2617 31.0216 31.3425 31.1024 31.4233C31.1832 31.5041 31.264 31.5849 31.264 31.7465C31.264 31.8273 31.264 31.9081 31.1832 31.9081C31.1024 31.9889 31.1024 31.9889 31.0216 32.0697C31.1024 32.0697 31.1832 32.1505 31.1832 32.2313C31.264 32.3121 31.264 32.3929 31.264 32.4737C31.264 32.6353 31.1832 32.7161 31.1024 32.7969C31.0216 32.8777 30.86 32.9585 30.6984 32.9585C30.5368 32.9585 30.3752 32.8777 30.2944 32.7969C30.2136 32.7161 30.1328 32.6353 30.1328 32.4737H30.456C30.456 32.5545 30.456 32.5545 30.5368 32.6353C30.6176 32.7161 30.6176 32.7161 30.6984 32.7161C30.7792 32.7161 30.86 32.7161 30.86 32.6353C30.9408 32.6353 30.9408 32.5545 30.9408 32.4737C30.9408 32.3121 30.86 32.2313 30.6984 32.2313H30.5368V31.9889H30.6176Z" fill="#50506D"/>
<path d="M34.4964 32.3119C34.4964 32.5543 34.4156 32.7159 34.3348 32.7967C34.254 32.8775 34.0924 32.9583 33.9308 32.9583C33.7692 32.9583 33.6076 32.8775 33.5268 32.7967C33.446 32.7159 33.3652 32.5543 33.3652 32.3119V31.9887C33.3652 31.7463 33.446 31.5847 33.5268 31.5039C33.6076 31.4231 33.7692 31.3423 33.9308 31.3423C34.0924 31.3423 34.254 31.4231 34.3348 31.5039C34.4156 31.5847 34.4964 31.7463 34.4964 31.9887V32.3119ZM34.1732 31.9887C34.1732 31.8271 34.1732 31.7463 34.0924 31.6655C34.0924 31.5847 34.0116 31.5847 33.9308 31.5847C33.85 31.5847 33.7692 31.5847 33.7692 31.6655C33.7692 31.7463 33.6884 31.8271 33.6884 31.9079V32.3119C33.6884 32.4735 33.6884 32.5543 33.7692 32.6351C33.7692 32.7159 33.85 32.7159 33.9308 32.7159C34.0116 32.7159 34.0924 32.7159 34.0924 32.6351C34.0924 32.5543 34.1732 32.4735 34.1732 32.3927V31.9887Z" fill="#50506D"/>
<path d="M35.7887 32.3119C35.7887 32.5543 35.7079 32.7159 35.6271 32.7967C35.5463 32.8775 35.3847 32.9583 35.2231 32.9583C35.0615 32.9583 34.8999 32.8775 34.8191 32.7967C34.7383 32.7159 34.7383 32.4735 34.7383 32.3119V31.9887C34.7383 31.7463 34.8191 31.5847 34.8999 31.5039C34.9807 31.4231 35.1423 31.3423 35.3039 31.3423C35.4655 31.3423 35.6271 31.4231 35.7079 31.5039C35.7887 31.5847 35.8695 31.7463 35.8695 31.9887V32.3119H35.7887ZM35.4655 31.9887C35.4655 31.8271 35.4655 31.7463 35.3847 31.6655C35.3847 31.5847 35.3039 31.5847 35.2231 31.5847C35.1423 31.5847 35.0615 31.5847 35.0615 31.6655C35.0615 31.7463 34.9807 31.8271 34.9807 31.9079V32.3119C34.9807 32.4735 34.9807 32.5543 35.0615 32.6351C35.0615 32.7159 35.1423 32.7159 35.2231 32.7159C35.3039 32.7159 35.3847 32.7159 35.3847 32.6351C35.3847 32.5543 35.4655 32.4735 35.4655 32.3927V31.9887Z" fill="#50506D"/>
<path d="M37.0831 32.9585H35.9519V32.7161L36.4367 32.1505C36.5175 32.0697 36.5983 31.9889 36.5983 31.9081C36.5983 31.8273 36.6791 31.8273 36.6791 31.7465C36.6791 31.6657 36.6791 31.5849 36.5983 31.5849C36.5175 31.5849 36.5175 31.5041 36.4367 31.5041C36.3559 31.5041 36.2751 31.5041 36.2751 31.5849C36.2751 31.6657 36.1943 31.6657 36.1943 31.7465H35.8711C35.8711 31.6657 35.8711 31.5849 35.9519 31.5041C36.0327 31.4233 36.0327 31.3425 36.1135 31.3425C36.1943 31.2617 36.2751 31.2617 36.4367 31.2617C36.5983 31.2617 36.7599 31.2617 36.8407 31.3425C36.9215 31.4233 37.0023 31.5041 37.0023 31.6657C37.0023 31.7465 37.0023 31.8273 36.9215 31.9081C36.8407 31.9889 36.8407 32.0697 36.6791 32.2313L36.3559 32.6353H37.0831V32.9585Z" fill="#50506D"/>
<path d="M38.0514 32.9583H37.7282V31.7463L37.3242 31.8271V31.5847L37.9706 31.3423V32.9583H38.0514Z" fill="#50506D"/>
</svg>
