<svg width="50" height="50" viewBox="0 0 50 50" fill="none" xmlns="http://www.w3.org/2000/svg">
<rect width="50" height="50" rx="25" fill="#021C33"/>
<path d="M1.26058 17.1616C-0.394719 22.1749 -0.420431 27.5835 1.18713 32.6123C2.79469 37.6411 5.953 42.0319 10.2094 45.1553C14.4658 48.2788 19.6017 49.9746 24.8812 49.9997C30.1606 50.0248 35.3124 48.3779 39.5983 45.2951C43.8842 42.2122 47.0841 37.8516 48.7394 32.8384C50.3947 27.8251 50.4204 22.4165 48.8129 17.3877C47.2053 12.3589 44.047 7.96813 39.7906 4.84466C35.5342 1.72119 30.3983 0.0253793 25.1188 0.000282466L25 25L1.26058 17.1616Z" fill="#0072BD"/>
<rect x="4" y="4" width="42" height="42" rx="21" fill="#021C33"/>
</svg>
