<svg width="20" height="20" viewBox="0 0 20 20" fill="none" xmlns="http://www.w3.org/2000/svg">
<g id="Group">
<path id="Vector" d="M19.5934 0C14.087 0 8.58061 0 3.09369 0C2.80183 0 2.68509 0.116743 2.68509 0.4086C2.68509 0.642086 2.66563 0.895029 2.68509 1.12851C2.70454 1.30363 2.62672 1.32309 2.47106 1.32309C2.21812 1.30363 1.98463 1.32309 1.73169 1.32309C1.47874 1.32309 1.34254 1.45929 1.34254 1.71223C1.34254 1.96517 1.32309 2.23757 1.34254 2.49052C1.34254 2.62672 1.30363 2.66563 1.16743 2.66563C0.933944 2.64617 0.719915 2.66563 0.486429 2.66563C0.2724 2.64617 0.116743 2.70454 0 2.87966C0 5.83715 0 8.81409 0 11.7716C0.116743 11.9467 0.291857 11.9856 0.486429 11.9856C4.37786 11.9856 8.26929 11.9856 12.1607 11.9856C13.7368 11.9856 15.3128 11.9856 16.8888 11.9856C17.239 11.9856 17.3363 11.8689 17.3363 11.5381C17.3363 11.2852 17.3363 11.0517 17.3363 10.7987C17.3363 10.682 17.3752 10.6625 17.4725 10.6625C17.7255 10.6625 17.9784 10.6625 18.2314 10.6625C18.5427 10.6625 18.6594 10.5458 18.6594 10.215C18.6594 9.96206 18.6594 9.72858 18.6594 9.47563C18.6594 9.35889 18.6789 9.31998 18.8151 9.31998C19.068 9.33943 19.3404 9.31998 19.5934 9.31998C19.8658 9.31998 20.002 9.20323 20.002 8.91138C20.002 6.07063 20.002 3.22989 20.002 0.389143C19.9825 0.116743 19.8658 0 19.5934 0ZM16.4608 11.3241C13.8535 11.3241 11.2462 11.3241 8.65843 11.3241C6.07063 11.3241 3.48283 11.3241 0.895029 11.3241C0.719915 11.3241 0.661544 11.3046 0.661544 11.11C0.661544 8.58061 0.661544 6.07063 0.661544 3.5412C0.661544 3.36609 0.700458 3.32717 0.875572 3.32717C6.07063 3.32717 11.2657 3.32717 16.4608 3.32717C16.6164 3.32717 16.6748 3.36609 16.6748 3.52174C16.6748 6.05118 16.6748 8.58061 16.6748 11.11C16.6553 11.2852 16.6164 11.3241 16.4608 11.3241ZM17.9979 9.78695C17.9979 9.96206 17.959 10.001 17.7838 10.001C17.3363 9.98152 17.3363 10.001 17.3363 9.55346C17.3363 7.43263 17.3363 5.29235 17.3363 3.17152C17.3363 2.76292 17.239 2.66563 16.8304 2.66563C11.9662 2.66563 7.10186 2.66563 2.23757 2.66563C2.06246 2.66563 2.00409 2.62672 2.00409 2.43214C2.02354 2.00409 2.00409 2.00409 2.43214 2.00409C4.96158 2.00409 7.47155 2.00409 10.001 2.00409C12.5888 2.00409 15.1766 2.00409 17.7644 2.00409C17.9395 2.00409 17.9979 2.043 17.9979 2.21812C17.9979 4.72809 17.9979 7.25752 17.9979 9.78695ZM19.321 8.46386C19.321 8.61952 19.282 8.65843 19.1264 8.65843C18.6594 8.65843 18.6594 8.65843 18.6594 8.19146C18.6594 6.07063 18.6594 3.9498 18.6594 1.82897C18.6594 1.42037 18.5621 1.32309 18.1535 1.32309C13.2892 1.32309 8.42495 1.32309 3.56066 1.32309C3.36609 1.32309 3.32717 1.28417 3.32717 1.0896C3.34663 0.661543 3.32717 0.661543 3.75523 0.661543C6.28466 0.661543 8.79464 0.661543 11.3241 0.661543C13.9119 0.661543 16.5191 0.661543 19.1069 0.661543C19.2626 0.661543 19.3015 0.700458 19.3015 0.856115C19.321 3.405 19.321 5.93443 19.321 8.46386Z" fill="black"/>
<path id="Vector_2" d="M19.7894 15.9935C18.5053 15.0206 17.2211 14.0672 15.9369 13.0944C15.8007 12.9971 15.6645 12.9387 15.5089 13.0165C15.3532 13.0944 15.3143 13.25 15.3143 13.4057C15.3143 13.7559 15.3143 14.0867 15.3143 14.4369C15.3143 14.5926 15.2754 14.6315 15.1197 14.6315C13.4659 14.6315 11.812 14.6315 10.1387 14.6315C9.74955 14.6315 9.63281 14.7482 9.63281 15.1179C9.63281 15.8962 9.63281 16.6745 9.63281 17.4528C9.63281 17.8614 9.7301 17.9587 10.1387 17.9587C11.7926 17.9587 13.4464 17.9587 15.1197 17.9587C15.2754 17.9587 15.3143 17.9976 15.3143 18.1532C15.3143 18.6007 15.3143 19.0288 15.3143 19.4763C15.3143 19.6709 15.3532 19.846 15.5478 19.9627C15.6256 19.9627 15.7034 19.9627 15.7813 19.9627C15.8396 19.9238 15.898 19.8849 15.9564 19.8265C17.2406 18.7564 18.5247 17.6863 19.8284 16.5967C20.0618 16.4215 20.0618 16.2075 19.7894 15.9935ZM16.0148 18.9315C16.0148 18.5424 16.0148 18.1921 16.0148 17.8419C16.0148 17.4139 15.9175 17.3166 15.4894 17.3166C13.8356 17.3166 12.2012 17.3166 10.5473 17.3166C10.3722 17.3166 10.3333 17.2582 10.3333 17.1025C10.3527 16.5772 10.3527 16.0519 10.3333 15.5265C10.3333 15.3514 10.3916 15.3319 10.5473 15.3319C12.2012 15.3319 13.8356 15.3319 15.4894 15.3319C15.9175 15.3319 16.0148 15.2347 16.0148 14.8066C16.0148 14.5731 16.0148 14.3202 16.0148 14.0867C16.0148 14.0672 16.0148 14.0672 16.0342 14.0283C17.0849 14.8066 18.0967 15.5849 19.1279 16.3437C18.0772 17.1998 17.0654 18.0559 16.0148 18.9315Z" fill="black"/>
<path id="Vector_3" d="M1.57588 14.6504C1.20623 14.6504 0.856031 14.6504 0.486381 14.6504C0.291829 14.6504 0.116732 14.7088 0 14.8839C0 15.8372 0 16.8099 0 17.7632C0.0972763 17.9383 0.252918 17.9967 0.447471 17.9967C0.817121 17.9772 1.20623 17.9967 1.57588 17.9967C1.8677 17.9967 1.98444 17.88 1.98444 17.5881C1.98444 16.7516 1.98444 15.915 1.98444 15.0784C2.00389 14.7671 1.8677 14.6504 1.57588 14.6504ZM1.32296 16.3235C1.32296 16.6154 1.32296 16.8877 1.32296 17.1796C1.32296 17.2769 1.3035 17.3352 1.18677 17.3352C1.01167 17.3158 0.797666 17.3936 0.700389 17.2963C0.583658 17.199 0.661479 16.985 0.661479 16.8099C0.661479 16.3625 0.661479 15.9344 0.661479 15.487C0.661479 15.3702 0.680934 15.3119 0.817121 15.3313C0.992218 15.3508 1.20623 15.273 1.3035 15.3702C1.40078 15.4675 1.32296 15.6815 1.32296 15.8372C1.34241 15.9928 1.32296 16.1484 1.32296 16.3235Z" fill="black"/>
<path id="Vector_4" d="M9.0078 15.059C9.0078 14.7671 8.87161 14.6504 8.57978 14.6504C8.19068 14.6504 7.80157 14.6504 7.41247 14.6504C7.12064 14.6504 7.00391 14.7866 7.00391 15.0784C7.00391 15.487 7.00391 15.915 7.00391 16.3235C7.00391 16.7321 7.00391 17.1601 7.00391 17.5687C7.00391 17.88 7.12064 17.9967 7.43192 17.9967C7.82103 17.9967 8.19068 17.9967 8.57978 17.9967C8.89107 17.9967 9.0078 17.88 9.02725 17.5881C9.0078 16.7321 9.0078 15.8955 9.0078 15.059ZM8.32686 16.3235C8.32686 16.6154 8.32686 16.8877 8.32686 17.1796C8.32686 17.2769 8.30741 17.3158 8.19068 17.3158C7.66539 17.3352 7.66539 17.3352 7.66539 16.8294C7.66539 16.3819 7.66539 15.9539 7.66539 15.5064C7.66539 15.3897 7.68484 15.3313 7.82103 15.3313C7.97667 15.3508 8.19068 15.273 8.28795 15.3702C8.38523 15.4481 8.30741 15.6815 8.32686 15.8372C8.32686 15.9928 8.32686 16.1679 8.32686 16.3235Z" fill="black"/>
<path id="Vector_5" d="M5.25353 14.6504C4.86443 14.6504 4.45587 14.6504 4.06676 14.6504C3.79439 14.6504 3.6582 14.7866 3.6582 15.059C3.6582 15.4675 3.6582 15.8955 3.6582 16.3041C3.6582 16.7321 3.6582 17.1601 3.6582 17.5881C3.6582 17.8605 3.77493 17.9967 4.06676 17.9967C4.45587 17.9967 4.84497 17.9967 5.23408 17.9967C5.54536 17.9967 5.66209 17.88 5.66209 17.5687C5.66209 16.7321 5.66209 15.915 5.66209 15.0784C5.66209 14.7866 5.54536 14.6504 5.25353 14.6504ZM5.00062 16.343C5.00062 16.6154 5.00062 16.9072 5.00062 17.1796C5.00062 17.2769 4.98116 17.3352 4.86443 17.3158C4.68933 17.2963 4.47532 17.3741 4.37805 17.2769C4.26132 17.1796 4.33914 16.9656 4.33914 16.7905C4.33914 16.343 4.33914 15.915 4.33914 15.4675C4.33914 15.3508 4.35859 15.3119 4.49478 15.3119C4.66988 15.3313 4.88388 15.2535 4.98116 15.3508C5.07844 15.4481 5.00062 15.6621 5.02007 15.8372C5.00062 16.0123 5.00062 16.1679 5.00062 16.343Z" fill="black"/>
<path id="Vector_6" d="M15.5864 5.6616C14.8665 5.58377 14.419 5.15571 14.3411 4.4358C14.3022 4.10502 14.1466 3.98828 13.8352 3.98828C10.3913 3.98828 6.94741 3.98828 3.48404 3.98828C3.44512 3.98828 3.38675 3.98828 3.34784 3.98828C3.15327 4.00774 3.03652 4.10502 2.99761 4.31905C2.97815 4.4358 2.97815 4.55254 2.95869 4.64982C2.80304 5.23354 2.37498 5.58377 1.69398 5.6616C1.46049 5.68105 1.34375 5.7978 1.34375 6.01183C1.34375 6.8874 1.34375 7.76297 1.34375 8.63854C1.34375 8.81366 1.44104 8.94986 1.63561 8.96931C1.75235 8.98877 1.84964 8.98877 1.96638 9.00823C2.56955 9.16389 2.95869 9.65031 2.99761 10.1757C3.03652 10.5648 3.11435 10.6426 3.50349 10.6426C5.21572 10.6426 6.92795 10.6426 8.65964 10.6426C10.4108 10.6426 12.1619 10.6426 13.9131 10.6426C14.2244 10.6426 14.3217 10.5648 14.3411 10.2535C14.3995 9.49466 15.0027 9.00823 15.5864 8.98877C15.8977 8.96931 15.995 8.83311 15.995 8.5218C15.995 7.72406 15.995 6.90685 15.995 6.10911C16.0144 5.7978 15.9172 5.70051 15.5864 5.6616ZM15.1778 8.3856C14.4384 8.58017 13.952 9.0666 13.738 9.80597C13.699 9.96163 13.6407 10.0005 13.485 10.0005C11.8701 10.0005 10.2551 10.0005 8.64018 10.0005C7.02524 10.0005 5.42975 10.0005 3.81481 10.0005C3.67861 10.0005 3.62024 9.96163 3.58132 9.82543C3.38675 9.0666 2.90032 8.59963 2.16095 8.3856C2.04421 8.36614 2.00529 8.32723 2.00529 8.21048C2.00529 7.62677 2.00529 7.04306 2.00529 6.4788C2.00529 6.36205 2.02475 6.32314 2.14149 6.28423C2.90032 6.0702 3.40621 5.58377 3.60078 4.82494C3.62024 4.7082 3.67861 4.68874 3.79535 4.68874C7.0447 4.68874 10.294 4.68874 13.5239 4.68874C13.6407 4.68874 13.6796 4.7082 13.7185 4.82494C13.9325 5.58377 14.419 6.0702 15.1778 6.26477C15.314 6.30368 15.314 6.36205 15.314 6.45934C15.314 7.04305 15.314 7.60731 15.314 8.19103C15.3334 8.32723 15.2751 8.36614 15.1778 8.3856Z" fill="black"/>
<path id="Vector_7" d="M8.65753 5.66211C7.74313 5.66211 7.00383 6.42086 6.98438 7.31581C6.98438 8.2302 7.76259 8.98896 8.65753 8.98896C9.57192 8.98896 10.3307 8.2302 10.3307 7.33526C10.3307 6.38195 9.59138 5.68156 8.65753 5.66211ZM8.65753 8.30802C8.11278 8.30802 7.66531 7.86055 7.66531 7.31581C7.66531 6.77106 8.13224 6.30413 8.65753 6.30413C9.20227 6.30413 9.63029 6.7516 9.63029 7.29635C9.64974 7.88001 9.22173 8.30802 8.65753 8.30802Z" fill="black"/>
</g>
</svg>
