<svg width="24" height="23" viewBox="0 0 24 23" fill="none" xmlns="http://www.w3.org/2000/svg">
<g clip-path="url(#clip0_25_48)">
<path d="M24.0003 16.4031C23.9263 16.314 23.9263 16.21 24.0003 16.1208C24.0003 16.21 24.0003 16.2991 24.0003 16.4031Z" fill="white"/>
<path d="M7.30514 3.81852C7.27556 3.99681 7.20162 4.13054 7.00939 4.16025C6.78758 4.18997 6.65449 4.08596 6.59534 3.89281C6.41789 3.29849 6.22565 2.71904 6.0482 2.12472C6.00384 1.97614 5.94469 1.81271 5.91512 1.66413C5.87075 1.45612 5.98905 1.27782 6.1665 1.23325C6.35874 1.20353 6.5214 1.26296 6.58055 1.44126C6.83194 2.19901 7.05375 2.97162 7.29035 3.74423C7.30514 3.77395 7.30514 3.7888 7.30514 3.81852Z" fill="white"/>
<path d="M2.42514 5.08142C2.60259 5.14085 2.80961 5.20028 3.00185 5.25972C3.56377 5.43801 4.12569 5.6163 4.68762 5.7946C4.86507 5.83917 4.96858 5.94318 4.96858 6.12147C4.96858 6.28491 4.89464 6.40377 4.74677 6.4632C4.67283 6.49292 4.59889 6.49292 4.52496 6.47806C3.78558 6.25519 3.04621 6.03233 2.32163 5.7946C2.1146 5.73517 2.02588 5.58659 2.07024 5.37858C2.08503 5.20028 2.21812 5.11114 2.42514 5.08142Z" fill="white"/>
<path d="M5.5748 5.14088C5.4565 5.14088 5.36777 5.08145 5.29384 4.9923C4.76149 4.47228 4.24393 3.93739 3.71158 3.40251C3.51935 3.20936 3.51935 3.00135 3.68201 2.85277C3.84467 2.70419 4.02212 2.71905 4.21435 2.89734C4.7467 3.43223 5.27905 3.96711 5.8114 4.50199C5.9297 4.62086 5.98885 4.75458 5.91491 4.93287C5.84097 5.06659 5.73746 5.14088 5.5748 5.14088Z" fill="white"/>
<path d="M23.9705 15.8088C23.6895 13.6098 22.5657 11.9755 20.6729 10.876C20.1849 10.5937 19.6526 10.4005 19.1054 10.252C19.1646 10.1777 19.1942 10.1182 19.2385 10.0588C20.6581 7.94898 20.7025 5.09627 19.3272 2.98645C19.1646 2.73386 18.9723 2.67443 18.7801 2.80815C18.6027 2.92702 18.5731 3.13503 18.721 3.35789C19.1942 4.11565 19.4899 4.94769 19.5786 5.83916C19.7413 7.38438 19.3272 8.76616 18.3956 9.99937C18.3661 10.0439 18.3217 10.1331 18.2625 10.1182C17.9372 10.0588 17.6119 10.1034 17.2718 10.0737C19.0315 8.365 19.2533 5.83916 18.159 3.95221C17.0352 2.03554 14.7579 1.08464 12.6137 1.6641C10.5435 2.21384 9.00561 4.16022 8.96125 6.24032C8.91689 7.59239 9.33094 8.78102 10.233 9.79136C11.135 10.8017 12.2884 11.3217 13.6489 11.4257C13.4123 11.6337 13.2052 11.8269 12.9982 12.0349C12.9243 12.124 12.8503 12.1092 12.7468 12.0943C9.64147 11.4703 7.65996 8.43929 8.29582 5.30428C8.93167 2.10983 12.1553 0.0891597 15.2903 0.891485C16.2219 1.12921 17.0352 1.57495 17.745 2.22869C17.9668 2.43671 18.1738 2.45156 18.3365 2.25841C18.4844 2.08012 18.44 1.90182 18.233 1.70867C17.2126 0.772622 16.0149 0.208023 14.6396 0.059444C12.7025 -0.163424 10.9871 0.37146 9.55275 1.69381C8.10358 3.03102 7.42336 4.70996 7.46772 6.6712C7.46772 6.86435 7.42336 6.89407 7.23112 6.86435C6.52132 6.76035 5.81153 6.79006 5.11652 6.93864C1.71541 7.66668 -0.473131 10.9057 0.0887913 14.3527C0.591564 17.3689 3.17936 19.657 6.22558 19.7313C8.04443 19.7759 9.6119 19.1518 10.928 17.8889C11.0315 17.7998 11.1202 17.6957 11.2385 17.562C11.2533 17.6363 11.2533 17.6809 11.2533 17.7106C11.8744 21.0536 15.0093 23.5052 18.5583 22.9109C21.2496 22.4651 22.9945 20.8308 23.793 18.2009C23.8818 17.8889 23.9409 17.562 24.0149 17.2352C24.0149 16.9529 24.0149 16.6706 24.0149 16.3883C23.9705 16.2991 23.9705 16.1951 24.0149 16.106C24.0149 16.0317 24.0149 15.9425 24.0149 15.8682C23.9705 15.8682 23.9705 15.8385 23.9705 15.8088ZM12.6433 8.84045C12.3476 8.469 12.1405 8.03813 12.0222 7.56267C11.9927 7.39924 11.9335 7.33981 11.7709 7.35466C11.6821 7.36952 11.5786 7.35466 11.5047 7.29523C11.3864 7.20609 11.3125 7.07236 11.3568 6.92379C11.416 6.74549 11.5343 6.64149 11.7265 6.65634C11.8596 6.65634 11.9039 6.62663 11.8892 6.49291C11.8744 6.37404 11.9335 6.25518 11.7265 6.25518C11.4899 6.25518 11.342 6.09174 11.342 5.89859C11.342 5.69058 11.5047 5.542 11.7561 5.542C11.9335 5.542 11.9927 5.49743 12.037 5.31913C12.1701 4.76939 12.4215 4.27908 12.806 3.86306C13.6932 2.92702 15.0093 3.06074 15.7783 4.24937C15.8818 4.4128 15.8374 4.62081 15.6895 4.72482C15.5269 4.84368 15.3642 4.81397 15.2311 4.68025C15.1276 4.57624 15.0537 4.45738 14.9502 4.35337C14.4474 3.8482 13.8115 3.8482 13.3088 4.38309C13.0426 4.66539 12.8947 4.99226 12.7616 5.34885C12.7173 5.49743 12.7468 5.542 12.9095 5.542C13.5158 5.52714 14.1073 5.542 14.7136 5.542C14.7727 5.542 14.8171 5.542 14.8762 5.542C15.1276 5.55686 15.2903 5.70544 15.2903 5.91345C15.2903 6.12146 15.1276 6.27004 14.8762 6.27004C14.5213 6.27004 14.1664 6.27004 13.8263 6.27004C13.4862 6.27004 13.1609 6.2849 12.8208 6.27004C12.6581 6.27004 12.6137 6.31461 12.6137 6.47805C12.6137 6.64149 12.6729 6.6712 12.8208 6.6712C13.5158 6.6712 14.2108 6.6712 14.9058 6.6712C15.098 6.6712 15.2311 6.76035 15.2903 6.9535C15.3346 7.1318 15.2607 7.26552 15.1128 7.35466C15.0241 7.39924 14.9354 7.39924 14.8319 7.39924C14.196 7.39924 13.5601 7.39924 12.9391 7.39924C12.7764 7.39924 12.732 7.42895 12.7912 7.59239C12.9243 7.96384 13.0869 8.30557 13.3531 8.58787C13.8559 9.10789 14.5065 9.10789 14.9945 8.58787C15.0832 8.49872 15.1424 8.39472 15.2311 8.29071C15.3642 8.12727 15.5564 8.11242 15.7191 8.21642C15.8818 8.33528 15.9113 8.52844 15.8078 8.72159C15.0241 9.89536 13.5158 9.98451 12.6433 8.84045ZM11.1646 16.2248C11.1646 16.4328 11.1054 16.5814 10.9871 16.73C9.75977 18.2752 8.16273 19.0775 6.18121 18.9884C3.40118 18.8844 1.1387 16.8043 0.754226 14.0407C0.32539 11.0246 2.39563 8.17185 5.39748 7.62211C6.0777 7.50324 6.74314 7.48839 7.42336 7.62211C7.51208 7.63696 7.57123 7.66668 7.60081 7.77068C7.64517 8.00841 7.70432 8.23128 7.77826 8.49872C7.40857 8.40957 7.05367 8.35014 6.68399 8.32043C4.1997 8.14213 1.86328 10.0885 1.53796 12.5698C1.18306 15.2442 2.95755 17.5917 5.3679 18.1118C6.53611 18.3644 7.65996 18.2009 8.72465 17.6512C8.94646 17.5323 9.0204 17.3392 8.91689 17.146C8.81338 16.938 8.62114 16.9083 8.35497 17.0271C6.83186 17.7552 5.3679 17.6809 3.97789 16.7151C2.58787 15.7642 1.92243 13.9961 2.30691 12.3321C2.67659 10.6977 4.02225 9.39019 5.64887 9.09304C6.44739 8.94446 7.23112 9.01875 8.00007 9.3159C8.11837 9.36048 8.20709 9.43477 8.26624 9.55363C8.75423 10.46 9.43445 11.2029 10.2773 11.7823C10.3808 11.8566 10.44 11.9309 10.4696 12.0498C10.8836 13.5504 10.5731 14.8876 9.58232 16.0614C9.55275 16.106 9.50838 16.1357 9.47881 16.1802C9.34572 16.3585 9.34572 16.5517 9.4936 16.6854C9.64147 16.834 9.8485 16.834 10.0112 16.6557C10.3808 16.2694 10.6766 15.8237 10.8984 15.3482C11.3125 14.4716 11.4455 13.5355 11.3125 12.5846C11.3125 12.5401 11.2977 12.4955 11.2977 12.4509C11.2977 12.4361 11.3125 12.4063 11.3125 12.3766C11.5491 12.4806 11.7856 12.5549 12.0222 12.6292C12.1553 12.6738 12.1849 13.0304 12.0814 13.1938C11.6969 13.8327 11.4308 14.5162 11.2829 15.2591C11.2089 15.5859 11.1498 15.8979 11.1646 16.2248ZM17.5675 22.2868C14.4178 22.2868 11.8596 19.7016 11.8596 16.5368C11.8596 13.387 14.4326 10.8017 17.5823 10.7868C20.732 10.7868 23.3198 13.387 23.3051 16.5517C23.2903 19.7164 20.7173 22.2868 17.5675 22.2868Z" fill="white"/>
<path d="M7.66013 13.2384C7.4531 13.0452 7.18693 12.9264 6.90597 12.8372C6.77288 12.8075 6.74331 12.7332 6.74331 12.6144C6.7581 12.2578 6.74331 11.8863 6.74331 11.5297C6.74331 11.3663 6.65458 11.1286 6.78767 11.0543C6.92076 10.98 7.08342 11.1583 7.23129 11.2474C7.43832 11.3514 7.61577 11.3217 7.73407 11.1434C7.83758 10.9949 7.808 10.7868 7.66013 10.668C7.51225 10.5491 7.33481 10.4303 7.15736 10.3857C6.86161 10.3263 6.68416 10.2222 6.74331 9.88052C6.77288 9.70222 6.62501 9.58336 6.43277 9.5685C6.25532 9.53879 6.12224 9.61308 6.06309 9.79137C6.03351 9.86566 6.03351 9.96966 6.0483 10.0588C6.06309 10.252 5.98915 10.3114 5.82649 10.3708C5.24978 10.564 4.92445 10.9949 4.83573 11.5892C4.747 12.1983 4.96882 12.6738 5.51595 12.9858C5.63425 13.0452 5.73776 13.1344 5.87085 13.179C6.03351 13.2384 6.06309 13.3275 6.0483 13.4761C6.03351 13.7733 6.0483 14.0704 6.0483 14.3676C6.0483 14.6945 6.0483 15.0213 6.0483 15.3631C6.0483 15.4968 6.00394 15.5117 5.88564 15.4968C5.64904 15.4522 5.44201 15.3334 5.2202 15.2145C5.01318 15.0956 4.82094 15.1551 4.71743 15.3185C4.61392 15.4968 4.65828 15.6751 4.85052 15.8088C5.08712 15.9722 5.32371 16.106 5.60468 16.1654C5.73776 16.1951 5.91521 16.1654 6.00394 16.2397C6.10745 16.3288 6.03351 16.522 6.0483 16.6706C6.06309 16.8786 6.19617 16.9826 6.38841 16.9974C6.56586 17.0272 6.72852 16.8637 6.7581 16.6706C6.77288 16.5814 6.77288 16.4923 6.7581 16.418C6.74331 16.2694 6.78767 16.1951 6.95033 16.1505C7.60098 15.9425 8.00024 15.4819 8.14811 14.8282C8.29599 14.219 8.13333 13.6693 7.66013 13.2384ZM6.03351 12.4658C5.76734 12.3172 5.54553 12.1983 5.53074 11.9012C5.50116 11.5743 5.61946 11.3069 5.88564 11.1286C5.98915 11.0543 6.0483 11.0543 6.0483 11.2029C6.03351 11.604 6.03351 12.0201 6.03351 12.4658ZM6.7581 15.4225C6.7581 14.8133 6.7581 14.1893 6.7581 13.5653C7.24608 13.7139 7.48268 13.9962 7.46789 14.4419C7.46789 14.9025 7.17214 15.3185 6.7581 15.4225Z" fill="white"/>
<path d="M17.6861 11.5892C14.9356 11.5446 12.6436 13.7881 12.6436 16.522C12.6436 19.2707 14.8173 21.4845 17.5678 21.4994C20.2887 21.5142 22.492 19.3004 22.5068 16.5665C22.5216 13.8624 20.333 11.6337 17.6861 11.5892ZM17.5826 20.7862C15.2609 20.7862 13.3681 18.8844 13.3681 16.5368C13.3681 14.219 15.2609 12.3023 17.5826 12.3023C19.9042 12.3023 21.8118 14.219 21.8118 16.5517C21.8118 18.8844 19.9042 20.7862 17.5826 20.7862Z" fill="white"/>
<path d="M17.035 16.3288C16.9167 16.1505 16.828 16.0019 16.7245 15.8533C16.3253 15.259 15.926 14.6498 15.5415 14.0555C15.3789 13.8029 15.3936 13.5801 15.5859 13.4612C15.7781 13.3275 15.9704 13.4018 16.1478 13.6692C16.5619 14.3081 16.9759 14.9321 17.4047 15.571C17.4491 15.6453 17.4787 15.7196 17.5674 15.779C18.0258 15.0807 18.4842 14.3824 18.9426 13.6841C19.0018 13.5801 19.0757 13.4761 19.194 13.4464C19.3419 13.4018 19.475 13.4315 19.5785 13.5504C19.6968 13.6841 19.6968 13.8327 19.6081 13.9812C19.4306 14.2635 19.2532 14.531 19.0609 14.7984C18.7356 15.2887 18.4103 15.7939 18.0554 16.3288C18.3807 16.3288 18.6765 16.3288 18.9722 16.3288C19.0609 16.3288 19.1644 16.3288 19.2532 16.3288C19.5341 16.3436 19.6672 16.4774 19.6672 16.7002C19.6672 16.9082 19.5045 17.042 19.2532 17.042C18.8687 17.042 18.4842 17.0568 18.0997 17.042C17.9223 17.042 17.9223 17.1163 17.9223 17.25C17.9223 17.3986 17.9519 17.458 18.1145 17.4431C18.4842 17.4283 18.8687 17.4431 19.2384 17.4431C19.5193 17.4431 19.6672 17.5768 19.6672 17.7997C19.6672 18.0374 19.5193 18.1712 19.2236 18.1712C18.8539 18.1712 18.4694 18.1712 18.0997 18.1712C17.9667 18.1712 17.9075 18.2009 17.9223 18.3495C17.9371 18.6466 17.9223 18.9438 17.9223 19.2409C17.9223 19.5084 17.7892 19.6718 17.5674 19.6867C17.3456 19.7015 17.1977 19.5232 17.1977 19.2409C17.1977 18.9735 17.1829 18.706 17.2125 18.4386C17.2421 18.2009 17.1533 18.1563 16.9315 18.1712C16.5766 18.186 16.2217 18.1712 15.8816 18.1712C15.6746 18.1712 15.5119 18.0969 15.4676 17.874C15.4232 17.6363 15.5859 17.458 15.8668 17.4431C16.2513 17.4431 16.6358 17.4283 17.0203 17.4431C17.1829 17.4431 17.2273 17.3986 17.2273 17.2351C17.2273 17.0717 17.1829 17.042 17.0203 17.042C16.6506 17.0568 16.2661 17.042 15.8964 17.042C15.6155 17.042 15.4528 16.9082 15.4528 16.6705C15.4528 16.4476 15.6007 16.3288 15.8816 16.3139C16.2365 16.3288 16.621 16.3288 17.035 16.3288Z" fill="white"/>
</g>
<defs>
<clipPath id="clip0_25_48">
<rect width="24" height="23" fill="white"/>
</clipPath>
</defs>
</svg>
