<svg width="23" height="24" viewBox="0 0 23 24" fill="none" xmlns="http://www.w3.org/2000/svg">
<path d="M19.8707 9.0429C19.8707 8.00837 19.1051 7.11868 18.0706 6.95315C17.8637 6.91177 17.6982 6.93246 17.5327 7.09799C16.9533 7.73939 16.105 7.7187 15.5257 7.0773C15.4429 6.97384 15.3394 6.93246 15.1946 6.93246C14.9049 6.93246 14.6153 7.01522 14.3463 7.16006C14.2635 7.20144 14.2015 7.22213 14.098 7.11868C13.7463 6.74625 13.3118 6.53934 12.8152 6.43589C12.6083 6.39451 12.4014 6.35312 12.2152 6.56003C11.5117 7.34627 10.5185 7.34627 9.81506 6.56003C9.71161 6.45658 9.60816 6.4152 9.46332 6.4152C8.8633 6.43589 8.34603 6.68417 7.91153 7.11868C7.82877 7.20144 7.76669 7.22213 7.64255 7.16006C7.45634 7.05661 7.27012 6.99453 7.06321 6.95315C6.85631 6.93246 6.69078 6.91177 6.52526 7.09799C5.90454 7.76009 5.09761 7.73939 4.49758 7.0773C4.39413 6.97384 4.26999 6.93246 4.12515 6.93246C3.04924 6.97384 2.13885 7.90492 2.11816 9.00152C2.11816 9.60155 2.11816 10.2016 2.11816 10.7809C2.11816 11.1533 2.20093 11.2154 2.57336 11.2154C3.95963 11.2154 5.3459 11.2154 6.73216 11.2154C7.20805 11.2154 7.20805 11.2154 7.20805 11.6913C7.20805 12.0844 7.27012 12.1465 7.68393 12.1465C8.78053 12.1465 9.89782 12.1465 10.9944 12.1465C12.029 12.1465 13.0635 12.1465 14.098 12.1465C14.8015 12.1465 14.8015 12.1465 14.8015 11.443C14.8015 11.2568 14.8429 11.1947 15.0498 11.1947C16.5188 11.1947 18.0085 11.1947 19.4776 11.1947C19.7879 11.1947 19.8707 11.0913 19.8707 10.8016C19.8707 10.243 19.8707 9.64293 19.8707 9.0429ZM7.41495 7.82216C7.24943 8.19459 7.20805 8.58771 7.20805 8.98083C7.20805 9.45671 7.20805 9.9326 7.20805 10.4085C7.20805 10.5947 7.16667 10.6361 6.98045 10.6361C6.29766 10.6154 5.61487 10.6361 4.93208 10.6361C4.24929 10.6361 3.56651 10.6361 2.88372 10.6361C2.82164 10.6361 2.6975 10.6981 2.6975 10.5326C2.71819 9.91191 2.63543 9.31188 2.75957 8.71185C2.86303 8.13252 3.40098 7.65663 3.98032 7.53249C4.06308 7.5118 4.12515 7.53249 4.18722 7.59456C5.01485 8.33942 5.9873 8.33942 6.83562 7.61525C6.93907 7.53249 7.41495 7.61525 7.45634 7.7187C7.45634 7.76009 7.43565 7.80147 7.41495 7.82216ZM14.0153 11.5878C13.0014 11.5878 11.9876 11.5878 10.9944 11.5878C10.0013 11.5878 8.98744 11.5878 7.99429 11.5878C7.84946 11.5878 7.78738 11.5465 7.78738 11.4016C7.78738 10.5326 7.78738 9.66362 7.78738 8.79462C7.78738 7.92561 8.4081 7.18075 9.27711 7.01522C9.38056 6.99453 9.44263 7.01522 9.52539 7.09799C10.3944 7.9463 11.6358 7.9463 12.5255 7.09799C12.6083 7.03591 12.6704 6.99453 12.7738 7.01522C13.5601 7.18075 14.1808 7.88423 14.2015 8.67047C14.2222 9.58086 14.2015 10.4912 14.2222 11.3809C14.2222 11.5672 14.1601 11.5878 14.0153 11.5878ZM19.1258 10.6361C18.443 10.6361 17.7396 10.6361 17.0568 10.6361C16.3947 10.6361 15.7326 10.6361 15.0498 10.6361C14.8429 10.6361 14.8015 10.574 14.8015 10.3878C14.8015 9.74638 14.8429 9.12566 14.7808 8.48426C14.7394 8.25666 14.6774 8.02906 14.5739 7.82216C14.5325 7.73939 14.5532 7.69801 14.6567 7.65663C14.9463 7.5118 15.0912 7.5118 15.3601 7.7187C16.0843 8.31873 17.1188 8.29804 17.8223 7.65663C17.9672 7.53249 18.0706 7.53249 18.2154 7.57387C18.8362 7.78078 19.2707 8.33942 19.2914 9.02221C19.312 9.49809 19.2914 9.99467 19.2914 10.4706C19.312 10.6361 19.2293 10.6361 19.1258 10.6361Z" fill="white"/>
<path d="M13.1461 2.83604C13.0013 1.8222 12.153 1.03595 11.1598 0.973882C10.1046 0.91181 9.15284 1.5946 8.90456 2.58775C8.78041 3.08432 8.8011 3.5809 8.82179 4.09816C8.86317 5.25683 9.62873 6.10515 10.8081 6.24998C11.7392 6.37413 12.7323 5.79479 13.0841 4.78095C13.1875 4.38783 13.1875 4.0154 13.1875 3.62228C13.1875 3.3533 13.1875 3.10501 13.1461 2.83604ZM12.5254 4.51197C12.2978 5.29821 11.5736 5.75341 10.7253 5.64996C10.0218 5.56719 9.42182 4.90509 9.42182 4.13954C9.42182 3.68435 9.35975 3.20847 9.4632 2.75327C9.64942 2.00841 10.3529 1.49115 11.0771 1.55322C11.9047 1.63598 12.5254 2.21532 12.5668 3.04294C12.5875 3.24985 12.5668 3.43606 12.5668 3.64297C12.5875 3.93264 12.6289 4.2223 12.5254 4.51197Z" fill="white"/>
<path d="M7.41534 4.077C7.39465 3.10454 6.67048 2.3183 5.67733 2.17347C4.78763 2.04932 3.85656 2.69073 3.60827 3.58043C3.48413 4.077 3.50482 4.61496 3.5462 5.11153C3.62896 5.93915 4.08415 6.4978 4.84971 6.76678C5.63595 7.05645 6.31874 6.84954 6.89807 6.2702C7.35327 5.79432 7.47741 5.19429 7.41534 4.55289C7.41534 4.38736 7.41534 4.22184 7.41534 4.077ZM6.81531 5.19429C6.69117 5.85639 6.07045 6.35297 5.42904 6.31158C4.68418 6.24951 4.14623 5.71156 4.12554 5.00808C4.12554 4.84255 4.12554 4.69772 4.12554 4.47012C4.12554 4.3046 4.10484 4.077 4.14623 3.8494C4.29106 3.208 4.8704 2.7528 5.49111 2.77349C6.19459 2.79418 6.73255 3.27007 6.81531 3.99424C6.87738 4.38736 6.87738 4.78048 6.81531 5.19429Z" fill="white"/>
<path d="M18.443 4.53256C18.443 4.34635 18.4637 4.16013 18.443 3.95323C18.3602 2.98077 17.5946 2.23591 16.6222 2.17384C15.6704 2.11176 14.8014 2.79455 14.6152 3.74632C14.5324 4.16013 14.5738 4.57395 14.5738 4.98776C14.5738 5.93952 15.2773 6.72577 16.2704 6.89129C17.1188 7.03613 18.0291 6.45679 18.3395 5.60847C18.4843 5.23604 18.4637 4.8843 18.443 4.53256ZM17.8429 5.21535C17.6981 5.85676 17.1188 6.31195 16.498 6.29126C15.8153 6.27057 15.2773 5.79469 15.1738 5.1119C15.1118 4.69809 15.1118 4.26359 15.1738 3.84977C15.2773 3.18768 15.898 2.6911 16.5601 2.73248C17.305 2.77386 17.8429 3.33251 17.8636 4.05668C17.8636 4.20151 17.8636 4.36704 17.8636 4.57395C17.8636 4.76016 17.905 4.98776 17.8429 5.21535Z" fill="white"/>
<path d="M21.9195 14.5881C21.4229 13.8432 20.4505 13.5742 19.6435 13.9673C19.478 14.0501 19.3952 14.0294 19.2711 13.9053C18.7745 13.4294 18.0917 13.3259 17.471 13.657C17.3469 13.7191 17.2641 13.7191 17.1606 13.6363C16.4572 13.1604 15.733 13.1397 15.0088 13.5122C14.7812 13.6156 14.5743 13.7191 14.3674 13.8639C13.8295 14.2363 13.2708 14.3812 12.6294 14.3191C12.4225 14.2984 12.2156 14.3191 12.0087 14.3191C11.3673 14.3398 10.7673 14.2156 10.1879 13.926C9.25684 13.4708 8.28439 13.3673 7.27055 13.5742C6.36016 13.7604 5.6153 14.2156 4.9532 14.857C4.72561 15.0846 4.47732 15.2502 4.18765 15.3743C4.04282 15.4364 3.98074 15.4364 3.93936 15.2709C3.8566 14.9812 3.75315 14.6915 3.67038 14.3812C3.60831 14.1536 3.48417 14.0501 3.25657 14.0501C2.30481 14.0501 1.35304 14.0501 0.401272 14.0501C0.0702229 14.0501 -0.0332297 14.1743 0.00815151 14.5053C0.152986 15.6019 0.29782 16.7192 0.421963 17.8158C0.628869 19.4297 0.815084 21.0642 1.0013 22.6781C1.04268 22.9471 1.12544 23.0298 1.39442 23.0298C2.13928 23.0298 2.86345 23.0298 3.60831 23.0298C4.33248 23.0298 5.07734 23.0298 5.80152 23.0298C6.17395 23.0298 6.25671 22.885 6.15326 22.5332C5.98773 21.9746 5.82221 21.416 5.63599 20.8573C5.59461 20.7332 5.59461 20.6711 5.71875 20.5883C6.2774 20.2366 6.83605 19.8849 7.41538 19.5124C7.68436 19.3469 7.97403 19.3055 8.28439 19.3676C9.71204 19.6159 11.119 19.9262 12.5466 20.1331C13.5191 20.2573 14.4916 20.1331 15.2985 19.5952C17.4917 18.1468 19.6642 16.6157 21.8367 15.126C22.0643 14.9398 22.085 14.8157 21.9195 14.5881ZM17.8848 14.1122C18.1952 13.9467 18.5883 14.0708 18.8987 14.3605C18.0503 14.8157 17.2227 15.2709 16.3744 15.726C16.2916 15.7674 16.2503 15.7674 16.2089 15.664C16.1468 15.4778 16.0434 15.3329 15.9192 15.1467C16.5606 14.8157 17.2227 14.4432 17.8848 14.1122ZM16.7261 14.0501C16.3123 14.2777 15.9192 14.4846 15.5261 14.6915C15.464 14.7122 15.4226 14.7122 15.3813 14.6708C15.1744 14.526 14.9468 14.4432 14.6778 14.3605C15.3192 13.988 15.9399 13.6156 16.7261 14.0501ZM1.68409 22.4505C1.55995 22.4505 1.55995 22.3884 1.53925 22.3057C1.4358 21.4366 1.33235 20.5676 1.20821 19.6779C1.06337 18.5607 0.939228 17.4641 0.794394 16.3468C0.732322 15.7674 0.67025 15.2088 0.608178 14.6294C1.12544 14.6294 1.62202 14.6294 2.13928 14.6294C2.40826 14.6294 2.69793 14.6294 2.96691 14.6294C3.09105 14.6294 3.15312 14.6501 3.1945 14.7743C3.96005 17.2985 4.72561 19.8228 5.49116 22.347C5.49116 22.3677 5.51185 22.4091 5.51185 22.4505C4.22903 22.4505 2.94621 22.4505 1.68409 22.4505ZM19.6849 15.8709C18.1745 16.9054 16.6848 17.9399 15.1744 18.9745C14.4502 19.471 13.6432 19.6159 12.7949 19.5538C11.7604 19.471 10.7466 19.2021 9.73273 19.0365C9.21546 18.9538 8.71889 18.8503 8.20162 18.7676C7.8085 18.7055 7.43607 18.8089 7.08433 19.0158C6.58776 19.3262 6.07049 19.6366 5.57392 19.9676C5.40839 20.0711 5.3877 20.0297 5.32563 19.8642C4.9532 18.6227 4.58077 17.3813 4.18765 16.1399C4.16696 16.0571 4.0842 15.9743 4.24972 15.933C4.7463 15.7674 5.11873 15.4571 5.49116 15.1053C6.75328 13.9467 8.38784 13.7191 9.91894 14.4432C10.5604 14.7536 11.2018 14.8984 11.9052 14.8777C12.6708 14.857 13.4363 14.8777 14.2019 14.8777C14.9468 14.8777 15.6089 15.4571 15.7123 16.1812C15.1537 16.1605 14.5743 16.1399 14.0157 16.0985C13.3122 16.0571 12.6087 16.0985 11.9259 16.1812C11.7397 16.2019 11.6156 16.3054 11.6363 16.5123C11.657 16.6985 11.7811 16.7813 11.988 16.7606C13.2294 16.595 14.4709 16.7192 15.733 16.7606C15.8778 16.7606 16.0434 16.8226 16.1882 16.7399C16.333 16.6571 16.3537 16.533 16.3744 16.3675C16.3744 16.2847 16.4572 16.2847 16.5192 16.264C17.5951 15.6847 18.6918 15.0846 19.7884 14.5053C20.3263 14.2156 20.8436 14.2984 21.3195 14.7329C20.7608 15.126 20.2229 15.4984 19.6849 15.8709Z" fill="white"/>
</svg>
