<svg width="20" height="20" viewBox="0 0 20 20" fill="none" xmlns="http://www.w3.org/2000/svg">
<path d="M19.5934 0C14.087 0 8.58061 0 3.09369 0C2.80183 0 2.68509 0.116743 2.68509 0.4086C2.68509 0.642086 2.66563 0.895029 2.68509 1.12851C2.70454 1.30363 2.62672 1.32309 2.47106 1.32309C2.21812 1.30363 1.98463 1.32309 1.73169 1.32309C1.47874 1.32309 1.34254 1.45929 1.34254 1.71223C1.34254 1.96517 1.32309 2.23757 1.34254 2.49052C1.34254 2.62672 1.30363 2.66563 1.16743 2.66563C0.933944 2.64617 0.719915 2.66563 0.486429 2.66563C0.2724 2.64617 0.116743 2.70454 0 2.87966C0 5.83715 0 8.81409 0 11.7716C0.116743 11.9467 0.291857 11.9856 0.486429 11.9856C4.37786 11.9856 8.26929 11.9856 12.1607 11.9856C13.7368 11.9856 15.3128 11.9856 16.8888 11.9856C17.239 11.9856 17.3363 11.8689 17.3363 11.5381C17.3363 11.2852 17.3363 11.0517 17.3363 10.7987C17.3363 10.682 17.3752 10.6625 17.4725 10.6625C17.7255 10.6625 17.9784 10.6625 18.2314 10.6625C18.5427 10.6625 18.6594 10.5458 18.6594 10.215C18.6594 9.96206 18.6594 9.72858 18.6594 9.47563C18.6594 9.35889 18.6789 9.31998 18.8151 9.31998C19.068 9.33943 19.3404 9.31998 19.5934 9.31998C19.8658 9.31998 20.002 9.20323 20.002 8.91138C20.002 6.07063 20.002 3.22989 20.002 0.389143C19.9825 0.116743 19.8658 0 19.5934 0ZM16.4608 11.3241C13.8535 11.3241 11.2462 11.3241 8.65843 11.3241C6.07063 11.3241 3.48283 11.3241 0.895029 11.3241C0.719915 11.3241 0.661544 11.3046 0.661544 11.11C0.661544 8.58061 0.661544 6.07063 0.661544 3.5412C0.661544 3.36609 0.700458 3.32717 0.875572 3.32717C6.07063 3.32717 11.2657 3.32717 16.4608 3.32717C16.6164 3.32717 16.6748 3.36609 16.6748 3.52174C16.6748 6.05118 16.6748 8.58061 16.6748 11.11C16.6553 11.2852 16.6164 11.3241 16.4608 11.3241ZM17.9979 9.78695C17.9979 9.96206 17.959 10.001 17.7838 10.001C17.3363 9.98152 17.3363 10.001 17.3363 9.55346C17.3363 7.43263 17.3363 5.29235 17.3363 3.17152C17.3363 2.76292 17.239 2.66563 16.8304 2.66563C11.9662 2.66563 7.10186 2.66563 2.23757 2.66563C2.06246 2.66563 2.00409 2.62672 2.00409 2.43214C2.02354 2.00409 2.00409 2.00409 2.43214 2.00409C4.96158 2.00409 7.47155 2.00409 10.001 2.00409C12.5888 2.00409 15.1766 2.00409 17.7644 2.00409C17.9395 2.00409 17.9979 2.043 17.9979 2.21812C17.9979 4.72809 17.9979 7.25752 17.9979 9.78695ZM19.321 8.46386C19.321 8.61952 19.282 8.65843 19.1264 8.65843C18.6594 8.65843 18.6594 8.65843 18.6594 8.19146C18.6594 6.07063 18.6594 3.9498 18.6594 1.82897C18.6594 1.42037 18.5621 1.32309 18.1535 1.32309C13.2892 1.32309 8.42495 1.32309 3.56066 1.32309C3.36609 1.32309 3.32717 1.28417 3.32717 1.0896C3.34663 0.661543 3.32717 0.661543 3.75523 0.661543C6.28466 0.661543 8.79464 0.661543 11.3241 0.661543C13.9119 0.661543 16.5191 0.661543 19.1069 0.661543C19.2626 0.661543 19.3015 0.700458 19.3015 0.856115C19.321 3.405 19.321 5.93443 19.321 8.46386Z" fill="white"/>
<path d="M19.7885 15.9938C18.5043 15.021 17.2201 14.0676 15.936 13.0947C15.7998 12.9974 15.6636 12.9391 15.5079 13.0169C15.3522 13.0947 15.3133 13.2504 15.3133 13.406C15.3133 13.7563 15.3133 14.087 15.3133 14.4373C15.3133 14.5929 15.2744 14.6318 15.1188 14.6318C13.4649 14.6318 11.811 14.6318 10.1377 14.6318C9.74858 14.6318 9.63184 14.7486 9.63184 15.1183C9.63184 15.8966 9.63184 16.6748 9.63184 17.4531C9.63184 17.8617 9.72912 17.959 10.1377 17.959C11.7916 17.959 13.4454 17.959 15.1188 17.959C15.2744 17.959 15.3133 17.9979 15.3133 18.1536C15.3133 18.6011 15.3133 19.0292 15.3133 19.4767C15.3133 19.6712 15.3522 19.8464 15.5468 19.9631C15.6246 19.9631 15.7025 19.9631 15.7803 19.9631C15.8387 19.9242 15.897 19.8853 15.9554 19.8269C17.2396 18.7568 18.5238 17.6866 19.8274 16.597C20.0609 16.4219 20.0609 16.2079 19.7885 15.9938ZM16.0138 18.9319C16.0138 18.5427 16.0138 18.1925 16.0138 17.8423C16.0138 17.4142 15.9165 17.3169 15.4884 17.3169C13.8346 17.3169 12.2002 17.3169 10.5463 17.3169C10.3712 17.3169 10.3323 17.2586 10.3323 17.1029C10.3518 16.5776 10.3518 16.0522 10.3323 15.5269C10.3323 15.3518 10.3907 15.3323 10.5463 15.3323C12.2002 15.3323 13.8346 15.3323 15.4884 15.3323C15.9165 15.3323 16.0138 15.235 16.0138 14.807C16.0138 14.5735 16.0138 14.3205 16.0138 14.087C16.0138 14.0676 16.0138 14.0676 16.0332 14.0287C17.0839 14.807 18.0957 15.5852 19.1269 16.3441C18.0762 17.2002 17.0645 18.0563 16.0138 18.9319Z" fill="white"/>
<path d="M1.57588 14.6509C1.20623 14.6509 0.856031 14.6509 0.486381 14.6509C0.291829 14.6509 0.116732 14.7092 0 14.8843C0 15.8376 0 16.8104 0 17.7637C0.0972763 17.9388 0.252918 17.9972 0.447471 17.9972C0.817121 17.9777 1.20623 17.9972 1.57588 17.9972C1.8677 17.9972 1.98444 17.8805 1.98444 17.5886C1.98444 16.752 1.98444 15.9155 1.98444 15.0789C2.00389 14.7676 1.8677 14.6509 1.57588 14.6509ZM1.32296 16.324C1.32296 16.6159 1.32296 16.8882 1.32296 17.1801C1.32296 17.2773 1.3035 17.3357 1.18677 17.3357C1.01167 17.3162 0.797666 17.3941 0.700389 17.2968C0.583658 17.1995 0.661479 16.9855 0.661479 16.8104C0.661479 16.3629 0.661479 15.9349 0.661479 15.4875C0.661479 15.3707 0.680934 15.3124 0.817121 15.3318C0.992218 15.3513 1.20623 15.2734 1.3035 15.3707C1.40078 15.468 1.32296 15.682 1.32296 15.8377C1.34241 15.9933 1.32296 16.1489 1.32296 16.324Z" fill="white"/>
<path d="M9.00828 15.0594C9.00828 14.7676 8.8721 14.6509 8.58027 14.6509C8.19116 14.6509 7.80206 14.6509 7.41295 14.6509C7.12113 14.6509 7.00439 14.7871 7.00439 15.0789C7.00439 15.4875 7.00439 15.9155 7.00439 16.324C7.00439 16.7326 7.00439 17.1606 7.00439 17.5692C7.00439 17.8805 7.12113 17.9972 7.43241 17.9972C7.82151 17.9972 8.19116 17.9972 8.58027 17.9972C8.89155 17.9972 9.00829 17.8805 9.02774 17.5886C9.00829 16.7326 9.00828 15.896 9.00828 15.0594ZM8.32735 16.324C8.32735 16.6159 8.32735 16.8882 8.32735 17.1801C8.32735 17.2773 8.3079 17.3162 8.19117 17.3162C7.66587 17.3357 7.66587 17.3357 7.66587 16.8299C7.66587 16.3824 7.66587 15.9544 7.66587 15.5069C7.66587 15.3902 7.68533 15.3318 7.82152 15.3318C7.97716 15.3513 8.19116 15.2734 8.28844 15.3707C8.38572 15.4485 8.3079 15.682 8.32735 15.8377C8.32735 15.9933 8.32735 16.1684 8.32735 16.324Z" fill="white"/>
<path d="M5.25305 14.6509C4.86394 14.6509 4.45538 14.6509 4.06628 14.6509C3.7939 14.6509 3.65771 14.7871 3.65771 15.0594C3.65771 15.468 3.65771 15.896 3.65771 16.3046C3.65771 16.7326 3.65771 17.1606 3.65771 17.5886C3.65771 17.861 3.77445 17.9972 4.06628 17.9972C4.45538 17.9972 4.84449 17.9972 5.23359 17.9972C5.54487 17.9972 5.66161 17.8805 5.66161 17.5692C5.66161 16.7326 5.66161 15.9155 5.66161 15.0789C5.66161 14.7871 5.54487 14.6509 5.25305 14.6509ZM5.00013 16.3435C5.00013 16.6159 5.00013 16.9077 5.00013 17.1801C5.00013 17.2773 4.98067 17.3357 4.86394 17.3162C4.68884 17.2968 4.47484 17.3746 4.37756 17.2773C4.26083 17.1801 4.33865 16.9661 4.33865 16.791C4.33865 16.3435 4.33865 15.9155 4.33865 15.468C4.33865 15.3513 4.3581 15.3124 4.49429 15.3124C4.66939 15.3318 4.8834 15.254 4.98067 15.3513C5.07795 15.4485 5.00013 15.6626 5.01958 15.8377C5.00013 16.0127 5.00013 16.1684 5.00013 16.3435Z" fill="white"/>
<path d="M15.5864 5.66172C14.8665 5.58389 14.419 5.15583 14.3411 4.43592C14.3022 4.10515 14.1466 3.9884 13.8352 3.9884C10.3913 3.9884 6.94741 3.9884 3.48404 3.9884C3.44512 3.9884 3.38675 3.9884 3.34784 3.9884C3.15327 4.00786 3.03652 4.10515 2.99761 4.31918C2.97815 4.43592 2.97815 4.55266 2.95869 4.64995C2.80304 5.23366 2.37498 5.58389 1.69398 5.66172C1.46049 5.68118 1.34375 5.79792 1.34375 6.01195C1.34375 6.88752 1.34375 7.76309 1.34375 8.63866C1.34375 8.81378 1.44104 8.94998 1.63561 8.96944C1.75235 8.98889 1.84964 8.98889 1.96638 9.00835C2.56955 9.16401 2.95869 9.65043 2.99761 10.1758C3.03652 10.5649 3.11435 10.6428 3.50349 10.6428C5.21572 10.6428 6.92795 10.6428 8.65964 10.6428C10.4108 10.6428 12.1619 10.6428 13.9131 10.6428C14.2244 10.6428 14.3217 10.5649 14.3411 10.2536C14.3995 9.49478 15.0027 9.00835 15.5864 8.98889C15.8977 8.96944 15.995 8.83324 15.995 8.52192C15.995 7.72418 15.995 6.90698 15.995 6.10923C16.0144 5.79792 15.9172 5.70063 15.5864 5.66172ZM15.1778 8.38572C14.4384 8.58029 13.952 9.06672 13.738 9.80609C13.699 9.96175 13.6407 10.0007 13.485 10.0007C11.8701 10.0007 10.2551 10.0007 8.64018 10.0007C7.02524 10.0007 5.42975 10.0007 3.81481 10.0007C3.67861 10.0007 3.62024 9.96175 3.58132 9.82555C3.38675 9.06672 2.90032 8.59975 2.16095 8.38572C2.04421 8.36626 2.00529 8.32735 2.00529 8.21061C2.00529 7.62689 2.00529 7.04318 2.00529 6.47892C2.00529 6.36218 2.02475 6.32326 2.14149 6.28435C2.90032 6.07032 3.40621 5.58389 3.60078 4.82506C3.62024 4.70832 3.67861 4.68886 3.79535 4.68886C7.0447 4.68886 10.294 4.68886 13.5239 4.68886C13.6407 4.68886 13.6796 4.70832 13.7185 4.82506C13.9325 5.58389 14.419 6.07032 15.1778 6.26489C15.314 6.3038 15.314 6.36218 15.314 6.45946C15.314 7.04318 15.314 7.60743 15.314 8.19115C15.3334 8.32735 15.2751 8.36626 15.1778 8.38572Z" fill="white"/>
<path d="M8.65802 5.6626C7.74362 5.6626 7.00432 6.42135 6.98486 7.31629C6.98486 8.23069 7.76307 8.98945 8.65802 8.98945C9.57241 8.98945 10.3312 8.23069 10.3312 7.33575C10.3312 6.38244 9.59187 5.68205 8.65802 5.6626ZM8.65802 8.30851C8.11327 8.30851 7.6658 7.86104 7.6658 7.31629C7.6658 6.77155 8.13272 6.30462 8.65802 6.30462C9.20276 6.30462 9.63078 6.75209 9.63078 7.29684C9.65023 7.8805 9.22222 8.30851 8.65802 8.30851Z" fill="white"/>
</svg>
