<svg width="19" height="26" viewBox="0 0 19 26" fill="none" xmlns="http://www.w3.org/2000/svg">
<g clip-path="url(#clip0_25_8)">
<path d="M19 0.585818C19 0.10338 18.8984 0 18.4242 0C13.7674 0 9.11052 0 4.47059 0C4.21658 0 4.04724 0.0689198 3.8779 0.241219C2.65865 1.48178 1.45633 2.7051 0.237077 3.92843C0.0677362 4.10073 0 4.2558 0 4.49702C0 11.4579 0 18.436 0 25.3969C0 25.8622 0.118538 25.9828 0.592692 25.9828C6.53654 25.9828 12.4804 25.9828 18.4242 25.9828C18.8815 25.9828 19.0169 25.8622 19.0169 25.3797C19.0169 21.2445 19.0169 17.1093 19.0169 12.9742C19 8.8562 19 4.72101 19 0.585818ZM3.89483 1.39563C3.89483 2.20543 3.89483 2.99801 3.89483 3.79059C3.89483 3.85951 3.89483 3.92843 3.79323 3.92843C2.99733 3.92843 2.18449 3.92843 1.38859 3.92843C2.21836 3.08416 3.04813 2.25712 3.89483 1.39563ZM17.967 25.2074C12.328 25.2074 6.68895 25.2074 1.04991 25.2074C0.7959 25.2074 0.762032 25.1385 0.762032 24.8973C0.762032 18.2638 0.762032 11.6474 0.762032 5.01392C0.762032 4.7727 0.812834 4.70378 1.04991 4.70378C2.06595 4.72101 3.06506 4.70378 4.08111 4.70378C4.52139 4.70378 4.65686 4.56594 4.65686 4.11796C4.65686 3.08416 4.65686 2.05036 4.65686 0.999337C4.65686 0.809808 4.69073 0.758118 4.89394 0.758118C9.26292 0.758118 13.6319 0.758118 18.0009 0.758118C18.221 0.758118 18.2549 0.827038 18.2549 1.0338C18.2549 5.01392 18.2549 8.99404 18.2549 12.9742C18.2549 16.937 18.2549 20.9172 18.2549 24.8801C18.2549 25.1385 18.2041 25.2074 17.967 25.2074Z" fill="white"/>
<path d="M9.49993 9.06299C11.3796 9.06299 13.2593 9.06299 15.139 9.06299C15.4946 9.06299 15.6639 9.20083 15.6809 9.44205C15.6809 9.7005 15.4946 9.85557 15.139 9.85557C11.5828 9.85557 8.0436 9.85557 4.48745 9.85557C4.26731 9.85557 4.04717 9.85557 3.81009 9.85557C3.50528 9.83834 3.33594 9.68327 3.33594 9.44205C3.33594 9.20083 3.52221 9.06299 3.81009 9.06299C5.7067 9.06299 7.60332 9.06299 9.49993 9.06299Z" fill="white"/>
<path d="M9.53379 6.49573C11.3796 6.49573 13.2423 6.49573 15.0882 6.49573C15.1728 6.49573 15.2575 6.49573 15.3252 6.49573C15.5284 6.53019 15.647 6.6508 15.6639 6.85756C15.6808 7.06432 15.5792 7.20216 15.393 7.27108C15.3083 7.28831 15.2236 7.30554 15.122 7.30554C11.3796 7.30554 7.65411 7.30554 3.91168 7.30554C3.79315 7.30554 3.67461 7.30554 3.573 7.25385C3.40366 7.1677 3.33593 7.01263 3.3698 6.8231C3.40366 6.63357 3.5222 6.53019 3.70848 6.49573C3.77621 6.49573 3.84395 6.49573 3.92862 6.49573C5.79136 6.49573 7.67104 6.49573 9.53379 6.49573Z" fill="white"/>
<path d="M9.53388 11.613C11.3797 11.613 13.2255 11.613 15.0544 11.613C15.156 11.613 15.2576 11.613 15.3423 11.6303C15.5455 11.6647 15.664 11.8026 15.664 12.0093C15.664 12.2161 15.5624 12.3539 15.3592 12.3884C15.2745 12.4228 15.1729 12.4056 15.0713 12.4056C11.3628 12.4056 7.6542 12.4056 3.92871 12.4056C3.50536 12.4056 3.31908 12.2678 3.33602 12.0093C3.33602 11.7509 3.52229 11.6303 3.92871 11.6303C5.79145 11.613 7.67113 11.613 9.53388 11.613Z" fill="white"/>
<path d="M9.51693 4.72104C8.63636 4.72104 7.77273 4.72104 6.89216 4.72104C6.72282 4.72104 6.55348 4.70381 6.43494 4.53152C6.35027 4.41091 6.35027 4.27307 6.418 4.13523C6.50267 3.98016 6.63815 3.92847 6.79055 3.92847C7.70499 3.92847 8.61943 3.92847 9.51693 3.92847C10.3975 3.92847 11.2611 3.92847 12.1417 3.92847C12.4465 3.92847 12.6159 4.06631 12.6328 4.30753C12.6497 4.56598 12.4635 4.72104 12.1586 4.72104C11.2781 4.72104 10.3975 4.72104 9.51693 4.72104Z" fill="white"/>
<path d="M9.02604 14.232C9.02604 13.8874 8.89057 13.7495 8.55189 13.7495C8.09467 13.7495 7.62051 13.7495 7.16329 13.7495C6.77381 13.7495 6.65527 13.8874 6.65527 14.2836C6.65527 16.6958 6.65527 19.108 6.65527 21.5202C6.65527 21.8993 6.80768 22.0543 7.16329 22.0543C7.60358 22.0543 8.04387 22.0543 8.48415 22.0543C8.89057 22.0543 9.02604 21.9165 9.02604 21.503C9.02604 20.2969 9.02604 19.108 9.02604 17.9019C9.02604 16.6786 9.04297 15.4553 9.02604 14.232ZM7.99306 21.279C7.41731 21.2618 7.41731 21.279 7.41731 20.676C7.41731 19.7628 7.41731 18.8323 7.41731 17.9192C7.41731 16.8681 7.41731 15.8171 7.41731 14.7488C7.41731 14.5766 7.46811 14.5249 7.63745 14.5249C8.26401 14.5249 8.26401 14.5249 8.26401 15.1624C8.26401 17.1094 8.26401 19.0563 8.28094 21.0033C8.28094 21.2273 8.21321 21.279 7.99306 21.279Z" fill="white"/>
<path d="M15.6639 14.3009C15.6639 13.8701 15.5623 13.7667 15.1559 13.7667C14.7156 13.7667 14.2753 13.7667 13.835 13.7667C13.4286 13.7667 13.3101 13.8873 13.3101 14.3009C13.3101 15.5069 13.3101 16.6958 13.3101 17.9019C13.3101 19.1252 13.3101 20.3486 13.3101 21.5547C13.3101 21.8993 13.4625 22.0543 13.8011 22.0543C14.2584 22.0543 14.7156 22.0543 15.1728 22.0543C15.5115 22.0543 15.6639 21.8993 15.6639 21.5547C15.6639 21.2273 15.6639 20.8999 15.6639 20.5726C15.6639 18.4877 15.6639 16.3857 15.6639 14.3009ZM14.6648 21.279C14.089 21.2618 14.089 21.279 14.089 20.6759C14.089 19.7627 14.089 18.8323 14.089 17.9191C14.089 16.8681 14.089 15.8171 14.089 14.7488C14.089 14.5765 14.1229 14.5248 14.3092 14.5248C14.9357 14.5248 14.9357 14.5248 14.9357 15.1624C14.9357 17.1093 14.9357 19.0563 14.9357 21.0033C14.9188 21.2101 14.8849 21.279 14.6648 21.279Z" fill="white"/>
<path d="M5.68961 17.0921C5.68961 16.7648 5.57108 16.6442 5.24933 16.6442C4.75824 16.6442 4.28409 16.6442 3.793 16.6442C3.45432 16.6442 3.31885 16.782 3.31885 17.1438C3.31885 17.8675 3.31885 18.5912 3.31885 19.332C3.31885 20.0729 3.31885 20.8138 3.31885 21.5375C3.31885 21.8993 3.47125 22.0544 3.82687 22.0544C4.26715 22.0544 4.72437 22.0544 5.16466 22.0544C5.52027 22.0544 5.67268 21.8993 5.67268 21.5375C5.68961 20.0557 5.68961 18.5739 5.68961 17.0921ZM4.74131 21.279C4.11475 21.279 4.11475 21.2963 4.11475 20.6415C4.11475 19.6594 4.11475 18.6601 4.11475 17.678C4.11475 17.4884 4.13168 17.4195 4.35182 17.4195C4.92758 17.4367 4.92758 17.4195 4.92758 18.0053C4.92758 18.4533 4.92758 18.9185 4.92758 19.3665C4.92758 19.9351 4.92758 20.4864 4.92758 21.055C4.94452 21.2101 4.92758 21.279 4.74131 21.279Z" fill="white"/>
<path d="M11.8709 16.6442C11.4137 16.6442 10.9395 16.6442 10.4823 16.6442C10.1097 16.6442 9.99121 16.7648 9.99121 17.1438C9.99121 17.8675 9.99121 18.5912 9.99121 19.332C9.99121 20.0729 9.99121 20.7966 9.99121 21.5375C9.99121 21.8993 10.1267 22.0544 10.4992 22.0544C10.9395 22.0544 11.3967 22.0544 11.837 22.0544C12.1926 22.0544 12.345 21.8993 12.345 21.5375C12.345 20.0557 12.345 18.5739 12.345 17.0921C12.3281 16.7648 12.2096 16.6442 11.8709 16.6442ZM11.3967 21.279C10.7532 21.2963 10.7532 21.2963 10.7532 20.6415C10.7532 19.6422 10.7532 18.6601 10.7532 17.6607C10.7532 17.4712 10.804 17.4195 10.9903 17.4195C11.5999 17.4195 11.5999 17.4195 11.5999 18.0398C11.5999 18.4705 11.5999 18.9185 11.5999 19.3493C11.5999 19.9179 11.5999 20.5037 11.5999 21.0723C11.5999 21.2101 11.5491 21.2618 11.3967 21.279Z" fill="white"/>
</g>
<defs>
<clipPath id="clip0_25_8">
<rect width="19" height="26" fill="white"/>
</clipPath>
</defs>
</svg>
