<svg width="19" height="22" viewBox="0 0 19 22" fill="none" xmlns="http://www.w3.org/2000/svg">
<path d="M17.7497 5.31645C17.2414 5.23172 16.7119 5.29526 16.1823 5.29526C16.0129 5.29526 15.9493 5.2529 15.9493 5.06227C15.9493 3.89732 15.9493 2.73236 15.9493 1.5674C15.9493 0.677794 15.2715 0 14.3819 0C11.1201 0 7.85817 0 4.59629 0C3.83377 0 3.19834 0.529526 3.07125 1.29204C3.02889 1.54622 3.05007 1.82157 3.05007 2.09692C3.05007 2.28755 3.02889 2.3511 2.81708 2.32992C2.32992 2.30874 1.84275 2.3511 1.33441 2.30874C0.61425 2.28755 0 2.88062 0 3.66432C0.0211811 6.39668 0 9.12904 0 11.8614C0 14.6149 0 17.3685 0 20.1432C0 21.1387 0.826062 21.9859 1.80039 21.9859C6.92621 21.9859 12.0732 21.9859 17.199 21.9859C18.1522 21.9859 18.9994 21.1387 18.9994 20.1855C18.9994 15.7163 18.9994 11.2471 18.9994 6.75676C19.0206 6.05778 18.4699 5.44353 17.7497 5.31645ZM15.9705 6.10014C15.9705 5.99424 16.0129 5.97306 16.1188 5.97306C16.5848 5.97306 17.0719 5.97306 17.5379 5.97306C17.9404 5.97306 18.2581 6.26959 18.3216 6.67203C18.364 6.98975 18.3216 7.30747 18.3428 7.64636C18.3428 7.75227 18.2793 7.75227 18.1945 7.75227C17.8345 7.75227 17.4956 7.75227 17.1355 7.75227C16.7966 7.75227 16.4365 7.75227 16.0976 7.75227C15.9917 7.75227 15.9493 7.73109 15.9493 7.62518C15.9705 7.11684 15.9705 6.60849 15.9705 6.10014ZM3.74905 1.54622C3.74905 1.03787 4.08794 0.698975 4.59629 0.656613C4.65983 0.656613 4.72338 0.656613 4.76574 0.656613C7.9429 0.656613 11.0989 0.656613 14.276 0.656613C14.5726 0.656613 14.8691 0.720156 15.0809 0.953148C15.2292 1.10142 15.3139 1.29204 15.3139 1.50385C15.3139 3.53724 15.3139 5.57062 15.3139 7.604C15.3139 7.75227 15.2504 7.75227 15.1445 7.75227C14.2972 7.75227 13.45 7.75227 12.6239 7.75227C12.2427 7.75227 11.9038 7.81581 11.6284 8.02762C11.5225 8.09116 11.4378 8.09116 11.3319 8.09116C9.70092 8.09116 8.06998 8.09116 6.41786 8.09116C6.35432 8.09116 6.26959 8.09116 6.20605 8.09116C6.01542 8.13353 5.90952 8.23943 5.90952 8.43006C5.90952 8.59951 6.0366 8.74778 6.20605 8.76896C6.39668 8.76896 6.58731 8.76896 6.77794 8.76896C8.17589 8.76896 9.57384 8.76896 11.0142 8.76896C10.6541 9.34085 10.3152 9.89155 9.9551 10.4211C9.80683 10.6541 9.53148 10.7388 9.25612 10.7388C7.47691 10.7388 5.69771 10.7388 3.9185 10.7388C3.77023 10.7388 3.74905 10.6964 3.74905 10.5693C3.74905 7.56164 3.72787 4.55393 3.74905 1.54622ZM0.677794 3.6855C0.677794 3.21952 0.889605 3.00771 1.35559 2.98653C1.86393 2.98653 2.3511 2.98653 2.85944 2.98653C3.02889 2.98653 3.05007 3.02889 3.05007 3.17716C3.05007 4.38448 3.05007 5.61298 3.05007 6.8203C3.05007 8.0488 3.05007 9.2773 3.05007 10.4846C3.05007 10.6329 3.02889 10.6964 2.85944 10.6964C2.20283 10.6753 1.54622 10.6964 0.889605 10.6964C0.741337 10.6964 0.698975 10.6541 0.698975 10.5058C0.677794 8.23943 0.677794 5.97306 0.677794 3.6855ZM18.3428 20.0161C18.3428 20.8422 17.8345 21.3293 17.0084 21.3293C14.509 21.3293 12.0097 21.3293 9.51029 21.3293C7.01093 21.3293 4.51157 21.3293 2.0122 21.3293C1.37677 21.3293 0.910785 21.0328 0.741337 20.4821C0.698975 20.3338 0.677794 20.1855 0.677794 20.0373C0.677794 17.2202 0.677794 14.4031 0.677794 11.586C0.677794 11.4166 0.741337 11.3954 0.889605 11.3954C3.64314 11.3954 6.41786 11.3954 9.1714 11.3954C9.80683 11.3954 10.294 11.1412 10.6329 10.5905C10.993 10.0186 11.353 9.46793 11.6919 8.89604C11.8826 8.57833 12.1579 8.40888 12.5392 8.40888C14.4031 8.40888 16.2671 8.40888 18.131 8.40888C18.3004 8.40888 18.3216 8.47242 18.3216 8.62069C18.3428 12.4333 18.3428 16.2247 18.3428 20.0161Z" fill="white"/>
<path d="M9.50959 3.51623C8.13282 3.51623 6.77724 3.51623 5.40047 3.51623C5.08275 3.51623 4.89212 3.28324 5.04039 3.05025C5.10393 2.92316 5.18866 2.85962 5.33693 2.85962C5.56992 2.85962 5.82409 2.85962 6.05708 2.85962C8.53526 2.85962 10.9923 2.85962 13.4705 2.85962C13.534 2.85962 13.5975 2.85962 13.6611 2.85962C13.8729 2.85962 14.0212 3.00789 14.0212 3.17733C14.0212 3.36796 13.8729 3.51623 13.6399 3.51623C12.5173 3.51623 11.3735 3.51623 10.2509 3.51623C10.0179 3.51623 9.76377 3.51623 9.50959 3.51623Z" fill="white"/>
<path d="M7.94239 5.46484C8.53546 5.46484 9.14971 5.46484 9.74278 5.46484C10.0605 5.46484 10.2511 5.7402 10.1029 5.97319C10.0181 6.12146 9.89105 6.16382 9.7216 6.16382C8.53546 6.16382 7.3705 6.16382 6.18436 6.16382C5.93019 6.16382 5.76074 6.01555 5.76074 5.80374C5.76074 5.61311 5.93019 5.46484 6.16318 5.46484C6.77743 5.46484 7.3705 5.46484 7.94239 5.46484Z" fill="white"/>
<path d="M12.0097 5.46484C12.2851 5.46484 12.5604 5.46484 12.8358 5.46484C13.0899 5.46484 13.2382 5.61311 13.2382 5.80374C13.2382 6.01555 13.0688 6.16382 12.8146 6.16382C12.2427 6.16382 11.6496 6.16382 11.0777 6.16382C10.8236 6.16382 10.6753 6.03673 10.6753 5.82492C10.6753 5.61311 10.8236 5.48602 11.0777 5.48602C11.3954 5.46484 11.692 5.46484 12.0097 5.46484Z" fill="white"/>
<path d="M9.53051 12.0944C7.26414 12.0944 5.42139 13.9159 5.42139 16.1823C5.42139 18.4487 7.24296 20.2703 9.50933 20.2703C11.7757 20.2703 13.6185 18.4487 13.6185 16.1823C13.5973 13.9371 11.7757 12.1155 9.53051 12.0944ZM10.0389 17.7921C9.93295 17.8556 9.89059 17.9192 9.89059 18.0462C9.91177 18.3004 9.78468 18.4487 9.57287 18.4487C9.36106 18.4487 9.25516 18.3428 9.23398 18.0462C9.23398 17.9403 9.19162 17.8768 9.08571 17.8344C8.8739 17.7497 8.70445 17.6014 8.59855 17.3896C8.49264 17.199 8.535 17.0295 8.70445 16.9236C8.85272 16.8177 9.04335 16.8601 9.17043 17.0295C9.27634 17.1778 9.38224 17.2837 9.59405 17.2414C9.78468 17.199 9.89059 17.0507 9.89059 16.8601C9.89059 16.6695 9.7635 16.5424 9.55169 16.5212C9.42461 16.5 9.3187 16.5 9.2128 16.4577C8.83154 16.3094 8.57736 16.034 8.535 15.6104C8.49264 15.208 8.64091 14.8479 9.00099 14.6361C9.12807 14.5514 9.17043 14.4666 9.17043 14.3184C9.14925 14.1701 9.19161 14.0218 9.3187 13.9371C9.53051 13.7888 9.82705 13.9371 9.80587 14.2125C9.80587 14.4243 9.86941 14.5302 10.06 14.5937C10.293 14.6996 10.4625 14.9114 10.526 15.1444C10.5048 15.3139 10.4413 15.4198 10.3142 15.4621C10.1659 15.5257 10.0177 15.4833 9.93295 15.3351C9.84823 15.208 9.7635 15.1021 9.59405 15.1021C9.38224 15.1021 9.23398 15.2292 9.2128 15.441C9.2128 15.6528 9.33988 15.801 9.55169 15.8222C10.1871 15.8646 10.6107 16.3094 10.5896 16.9025C10.5048 17.3261 10.3354 17.6014 10.0389 17.7921Z" fill="white"/>
</svg>
